<svg width="500" height="500" viewBox="0 0 500 500" fill="none" xmlns="http://www.w3.org/2000/svg">
<mask id="mask0_111_6" style="mask-type:luminance" maskUnits="userSpaceOnUse" x="249" y="52" width="150" height="387">
<path d="M249.774 52.6895H398.964V438.119H249.774V52.6895Z" fill="white"/>
</mask>
<g mask="url(#mask0_111_6)">
<path d="M249.749 52.9183C257.366 54.2487 264.974 55.7458 272.447 57.8361C279.923 59.9152 287.263 62.5535 294.333 65.8189C308.456 72.4174 321.474 81.4058 332.716 92.2923C343.964 103.153 353.5 115.947 360.212 130.22C363.564 137.347 366.219 144.821 368.068 152.504C369.926 160.188 370.927 168.069 371.192 175.961L371.189 176.145V176.193C371.062 178.243 370.873 180.393 370.808 182.362C370.69 184.543 370.495 186.641 370.233 188.763C369.706 192.989 368.917 197.155 368.006 201.259C366.197 209.474 363.891 217.459 362.422 225.45C360.948 233.419 360.499 241.501 362.416 249.113C363.361 252.91 364.846 256.559 366.78 259.991C368.708 263.381 371.169 266.717 373.633 269.895C378.639 276.203 384.573 281.99 390.346 287.979L392.525 290.213C393.253 290.967 394.062 291.86 394.755 292.727C396.168 294.507 397.478 296.512 398.276 298.942C399.099 301.34 399.133 304.323 398.11 306.794C397.123 309.286 395.474 311.167 393.825 312.732C390.51 315.851 386.713 317.907 384.117 320.455C381.43 323.031 379.685 326.183 379.615 329.638C379.479 333.11 380.844 336.765 382.614 340.333C383.499 342.143 384.497 343.94 385.444 345.942C385.909 346.957 386.38 348.007 386.707 349.318C386.789 349.646 386.854 350.004 386.902 350.372L386.927 350.665L386.938 351.067C386.938 351.301 386.919 351.53 386.89 351.753C386.769 352.651 386.468 353.383 386.149 354.016C384.793 356.439 383.15 357.877 381.526 359.374L380.291 360.436L379.668 360.95L379.353 361.199L379.195 361.329L379.119 361.388C378.73 361.784 379.555 360.922 379.451 361.041C379.228 361.332 379.897 360.589 379.897 359.812C379.902 359.422 379.866 359.34 379.823 359.154L379.758 358.959L379.733 358.911L379.815 359.044L380.224 359.685C380.531 360.157 380.844 360.69 381.123 361.25C382.296 363.473 382.701 366.408 382.005 368.922C381.915 369.255 381.85 369.506 381.712 369.882C381.627 370.125 381.546 370.362 381.382 370.727C381.095 371.396 380.793 371.907 380.438 372.461C379.73 373.529 378.887 374.45 378.005 375.238C376.243 376.822 374.34 377.941 372.697 379.048C371.88 379.596 371.135 380.153 370.605 380.675C370.05 381.26 369.999 381.399 369.669 382.444C368.655 385.932 368.767 390.028 368.962 394.101C369.159 398.211 369.537 402.423 369.278 406.79C369.139 408.962 368.838 411.185 368.161 413.372C367.488 415.55 366.408 417.696 364.869 419.482C361.7 423.143 357.418 424.888 353.215 425.959C348.981 426.984 344.705 427.298 340.474 427.301C332.003 427.255 323.667 426.027 315.495 424.165C311.439 423.176 307.334 422.069 303.452 420.425C299.664 418.953 295.717 417.801 291.703 417.168C287.683 416.552 283.573 416.471 279.559 417.112C275.545 417.753 271.641 419.12 268.055 421.103C260.858 425.089 254.978 431.19 249.907 437.732C254.702 431.004 260.263 424.521 267.545 420.21C271.156 418.055 275.15 416.504 279.308 415.699C283.466 414.889 287.757 414.832 291.954 415.343C296.154 415.863 300.256 416.917 304.25 418.315C308.067 419.792 312.042 420.722 316.07 421.566C324.101 423.233 332.313 424.267 340.445 424.145C344.502 424.063 348.55 423.671 352.37 422.657C354.272 422.14 356.11 421.467 357.788 420.566C358.199 420.335 358.608 420.097 359 419.838C359.372 419.595 359.716 419.355 360.156 419.013C360.838 418.473 361.514 417.818 362.072 417.129C364.392 414.341 365.235 410.507 365.387 406.587C365.545 402.626 365.117 398.542 364.827 394.356C364.567 390.172 364.246 385.808 365.444 381.226C365.652 380.565 365.703 380.235 366.112 379.356C366.481 378.636 366.944 378.054 367.4 377.568C368.33 376.611 369.278 375.941 370.171 375.323C371.958 374.099 373.63 373.066 374.944 371.851C377.608 369.526 378.476 366.19 376.937 363.368C376.745 362.998 376.531 362.639 376.271 362.241L375.832 361.575C375.747 361.433 375.654 361.295 375.516 361.032L375.412 360.809C375.361 360.688 375.319 360.558 375.282 360.431C375.223 360.179 375.172 360.038 375.18 359.583C375.192 358.741 375.86 357.928 375.691 358.182C375.62 358.239 376.503 357.346 376.164 357.699L376.235 357.634L376.381 357.518L376.675 357.281L377.244 356.798L378.36 355.821C379.787 354.53 381.224 353.055 381.861 351.812C382.008 351.513 382.084 351.264 382.098 351.132L382.101 351.038L382.107 351.05L382.093 350.954C382.073 350.809 382.045 350.657 382 350.479C381.819 349.767 381.453 348.906 381.035 348.044C380.19 346.293 379.15 344.468 378.191 342.547C376.286 338.748 374.439 334.409 374.549 329.48C374.605 327.051 375.237 324.585 376.328 322.418C377.419 320.24 378.916 318.381 380.556 316.771C383.942 313.529 387.587 311.588 390.29 308.964C391.643 307.687 392.751 306.309 393.287 304.907C393.831 303.509 393.828 302.086 393.329 300.552C392.827 299.018 391.86 297.464 390.682 296.01C390.076 295.258 389.492 294.614 388.776 293.874L386.603 291.648C380.844 285.702 374.791 279.92 369.492 273.169C366.89 269.782 364.392 266.406 362.222 262.567C360.085 258.754 358.422 254.633 357.373 250.359C355.239 241.758 355.831 232.84 357.399 224.524C358.949 216.157 361.359 208.172 363.206 200.169C364.142 196.164 364.934 192.164 365.481 188.144C365.748 186.147 365.96 184.102 366.084 182.13C366.182 179.947 366.388 177.952 366.535 175.859L366.529 176.091C366.182 160.897 362.879 145.77 356.64 131.864C350.433 117.938 341.41 105.292 330.605 94.4419C319.766 83.6288 307.295 74.3326 293.589 67.3725C279.844 60.4038 264.85 56.2091 249.749 52.9183Z" fill="#0087FF"/>
</g>
<path d="M405.581 420.463C408.326 416.929 410.968 413.336 413.271 409.525C415.636 405.763 417.739 401.848 419.498 397.788C423.021 389.684 425.322 381.06 426.021 372.278C426.79 363.499 425.981 354.612 424.011 345.988C423.027 341.672 421.702 337.427 420.093 333.288C418.534 329.119 416.651 325.071 414.421 321.19C419.675 328.467 423.326 336.853 425.77 345.542C428.203 354.245 429.113 363.42 428.369 372.473C427.591 381.526 425.144 390.439 421.136 398.546C419.14 402.602 416.823 406.489 414.232 410.166C411.577 413.796 408.727 417.276 405.581 420.463Z" fill="#0087FF"/>
<path d="M411.811 438.637C419.456 428.968 426.055 418.539 430.968 407.384C435.862 396.235 439.002 384.346 439.975 372.247C441.032 360.154 439.938 347.906 437.187 336.034C435.794 330.099 434.004 324.238 431.802 318.524C429.657 312.784 427.061 307.205 423.994 301.858C431.191 311.897 436.327 323.419 439.648 335.404C442.966 347.406 444.245 360.039 443.214 372.518C442.148 384.992 438.748 397.26 433.26 408.452C427.839 419.683 420.4 429.804 411.811 438.637Z" fill="#0087FF"/>
<mask id="mask1_111_6" style="mask-type:luminance" maskUnits="userSpaceOnUse" x="426" y="282" width="42" height="179">
<path d="M426.322 282.293H467.986V460.907H426.322V282.293Z" fill="white"/>
</mask>
<g mask="url(#mask1_111_6)">
<path d="M426.353 460.557C436.304 447.973 444.894 434.397 451.287 419.881C457.658 405.362 461.742 389.891 463.011 374.14C464.384 358.4 462.966 342.46 459.383 327.006C457.565 319.283 455.239 311.657 452.378 304.219C449.579 296.75 446.207 289.482 442.213 282.525C451.58 295.592 458.267 310.586 462.585 326.19C464.77 333.997 466.199 342.02 467.036 350.11C467.82 358.205 467.876 366.377 467.225 374.499C465.838 390.735 461.415 406.701 454.275 421.265C447.216 435.891 437.531 449.06 426.353 460.557Z" fill="#0087FF"/>
</g>
<path d="M405.581 420.463C408.326 416.929 410.968 413.336 413.271 409.525C415.636 405.763 417.739 401.848 419.498 397.788C423.021 389.684 425.322 381.06 426.021 372.278C426.79 363.499 425.981 354.612 424.011 345.988C423.027 341.672 421.702 337.427 420.093 333.288C418.534 329.119 416.651 325.071 414.421 321.19C419.675 328.467 423.326 336.853 425.77 345.542C428.203 354.245 429.113 363.42 428.369 372.473C427.591 381.526 425.144 390.439 421.136 398.546C419.14 402.602 416.823 406.489 414.232 410.166C411.577 413.796 408.727 417.276 405.581 420.463Z" fill="#0087FF"/>
<path d="M411.811 438.637C419.456 428.968 426.055 418.539 430.968 407.384C435.862 396.235 439.002 384.346 439.975 372.247C441.032 360.154 439.938 347.906 437.187 336.034C435.794 330.099 434.004 324.238 431.802 318.524C429.657 312.784 427.061 307.205 423.994 301.858C431.191 311.897 436.327 323.419 439.648 335.404C442.966 347.406 444.245 360.039 443.214 372.518C442.148 384.992 438.748 397.26 433.26 408.452C427.839 419.683 420.4 429.804 411.811 438.637Z" fill="#0087FF"/>
<mask id="mask2_111_6" style="mask-type:luminance" maskUnits="userSpaceOnUse" x="426" y="282" width="42" height="179">
<path d="M426.322 282.293H467.986V460.907H426.322V282.293Z" fill="white"/>
</mask>
<g mask="url(#mask2_111_6)">
<path d="M426.353 460.557C436.304 447.973 444.894 434.397 451.287 419.881C457.658 405.362 461.742 389.891 463.011 374.14C464.384 358.4 462.966 342.46 459.383 327.006C457.565 319.283 455.239 311.657 452.378 304.219C449.579 296.75 446.207 289.482 442.213 282.525C451.58 295.592 458.267 310.586 462.585 326.19C464.77 333.997 466.199 342.02 467.036 350.11C467.82 358.205 467.876 366.377 467.225 374.499C465.838 390.735 461.415 406.701 454.275 421.265C447.216 435.891 437.531 449.06 426.353 460.557Z" fill="#0087FF"/>
</g>
<path d="M48.448 265.216V258.088H56.602C58.654 258.088 60.472 257.782 62.056 257.17C63.676 256.522 65.044 255.622 66.16 254.47C67.276 253.318 68.122 251.968 68.698 250.42C69.31 248.836 69.616 247.09 69.616 245.182C69.616 243.202 69.31 241.438 68.698 239.89C68.122 238.306 67.276 236.956 66.16 235.84C65.044 234.724 63.676 233.878 62.056 233.302C60.472 232.726 58.654 232.438 56.602 232.438H48.448V225.31H56.116C59.68 225.31 62.794 225.832 65.458 226.876C68.122 227.92 70.336 229.36 72.1 231.196C73.864 232.996 75.178 235.066 76.042 237.406C76.942 239.71 77.392 242.104 77.392 244.588V245.776C77.392 248.152 76.942 250.492 76.042 252.796C75.178 255.1 73.864 257.188 72.1 259.06C70.336 260.932 68.122 262.426 65.458 263.542C62.794 264.658 59.68 265.216 56.116 265.216H48.448ZM41.86 265.216V225.31H49.528V265.216H41.86ZM109.044 265V225.58H116.712V265H109.044ZM83.1784 265V225.58H90.8464V265H83.1784ZM89.4424 248.638V241.888H110.448V248.638H89.4424ZM125.341 265V225.31H133.009V265H125.341ZM149.425 265L137.329 247.828H145.915L158.389 265H149.425ZM130.741 251.824V245.614H140.785C142.189 245.614 143.395 245.326 144.403 244.75C145.447 244.174 146.257 243.364 146.833 242.32C147.409 241.276 147.697 240.088 147.697 238.756C147.697 237.388 147.409 236.182 146.833 235.138C146.257 234.094 145.447 233.284 144.403 232.708C143.395 232.132 142.189 231.844 140.785 231.844H130.741V225.31H139.975C143.143 225.31 145.879 225.778 148.183 226.714C150.523 227.65 152.323 229.072 153.583 230.98C154.843 232.888 155.473 235.282 155.473 238.162V239.026C155.473 241.942 154.825 244.336 153.529 246.208C152.269 248.08 150.487 249.484 148.183 250.42C145.879 251.356 143.143 251.824 139.975 251.824H130.741ZM159.238 265L172.684 225.58H185.212L199.036 265H191.152L179.434 230.818L182.188 232.006H175.438L178.246 230.818L166.906 265H159.238ZM168.634 254.524L171.064 248.044H187.048L189.424 254.524H168.634ZM210.136 265L197.554 225.58H205.492L215.914 259.708L213.646 258.628H219.478L217.156 259.708L226.768 225.58H234.436L222.772 265H210.136ZM233.121 265L246.567 225.58H259.095L272.919 265H265.035L253.317 230.818L256.071 232.006H249.321L252.129 230.818L240.789 265H233.121ZM242.517 254.524L244.947 248.044H260.931L263.307 254.524H242.517ZM277.694 265V225.58H290.276L306.854 258.628H308.636L307.556 259.6V225.58H314.792V265H302.156L285.578 231.952H283.742L284.822 230.98V265H277.694ZM323.551 265V225.58H331.219V265H323.551Z" fill="#0087FF"/>
<path d="M50.408 194.608C48.296 194.608 46.4827 194.235 44.968 193.488C43.4533 192.741 42.216 191.771 41.256 190.576C40.3173 189.381 39.624 188.08 39.176 186.672C38.728 185.264 38.504 183.909 38.504 182.608V181.904C38.504 180.453 38.728 179.024 39.176 177.616C39.6453 176.208 40.36 174.928 41.32 173.776C42.28 172.624 43.496 171.707 44.968 171.024C46.4613 170.32 48.2213 169.968 50.248 169.968C52.36 169.968 54.1947 170.352 55.752 171.12C57.3307 171.867 58.5893 172.933 59.528 174.32C60.4667 175.685 61.032 177.285 61.224 179.12H56.648C56.4773 178.053 56.0933 177.157 55.496 176.432C54.92 175.685 54.184 175.131 53.288 174.768C52.392 174.384 51.3787 174.192 50.248 174.192C49.096 174.192 48.072 174.395 47.176 174.8C46.28 175.184 45.5333 175.739 44.936 176.464C44.3387 177.189 43.88 178.043 43.56 179.024C43.2613 180.005 43.112 181.093 43.112 182.288C43.112 183.44 43.2613 184.507 43.56 185.488C43.88 186.469 44.3493 187.333 44.968 188.08C45.5867 188.805 46.344 189.371 47.24 189.776C48.1573 190.181 49.2133 190.384 50.408 190.384C52.1573 190.384 53.6293 189.957 54.824 189.104C56.04 188.229 56.776 187.013 57.032 185.456H61.608C61.3947 187.12 60.8293 188.645 59.912 190.032C58.9947 191.419 57.736 192.528 56.136 193.36C54.536 194.192 52.6267 194.608 50.408 194.608ZM75.7785 194.608C73.6665 194.608 71.8318 194.235 70.2745 193.488C68.7385 192.741 67.4585 191.771 66.4345 190.576C65.4318 189.36 64.6745 188.059 64.1625 186.672C63.6718 185.264 63.4265 183.909 63.4265 182.608V181.904C63.4265 180.475 63.6825 179.056 64.1945 177.648C64.7065 176.219 65.4745 174.928 66.4985 173.776C67.5438 172.624 68.8345 171.707 70.3705 171.024C71.9065 170.32 73.7092 169.968 75.7785 169.968C77.8265 169.968 79.6185 170.32 81.1545 171.024C82.6905 171.707 83.9705 172.624 84.9945 173.776C86.0398 174.928 86.8185 176.219 87.3305 177.648C87.8425 179.056 88.0985 180.475 88.0985 181.904V182.608C88.0985 183.909 87.8425 185.264 87.3305 186.672C86.8398 188.059 86.0825 189.36 85.0585 190.576C84.0558 191.771 82.7758 192.741 81.2185 193.488C79.6825 194.235 77.8692 194.608 75.7785 194.608ZM75.7785 190.384C76.9732 190.384 78.0398 190.171 78.9785 189.744C79.9385 189.317 80.7492 188.731 81.4105 187.984C82.0932 187.216 82.6052 186.352 82.9465 185.392C83.3092 184.411 83.4905 183.376 83.4905 182.288C83.4905 181.115 83.3092 180.037 82.9465 179.056C82.6052 178.075 82.0932 177.221 81.4105 176.496C80.7492 175.771 79.9385 175.205 78.9785 174.8C78.0185 174.395 76.9518 174.192 75.7785 174.192C74.5838 174.192 73.5065 174.395 72.5465 174.8C71.5865 175.205 70.7652 175.771 70.0825 176.496C69.4212 177.221 68.9092 178.075 68.5465 179.056C68.2052 180.037 68.0345 181.115 68.0345 182.288C68.0345 183.376 68.2052 184.411 68.5465 185.392C68.9092 186.352 69.4212 187.216 70.0825 187.984C70.7652 188.731 71.5865 189.317 72.5465 189.744C73.5065 190.171 74.5838 190.384 75.7785 190.384ZM91.914 194V170.64H96.458V194H91.914ZM101.648 194V170.64H106.192V194H101.648ZM105.552 194V190H115.632V194H105.552ZM122.599 194.128V189.904H127.431C128.647 189.904 129.724 189.723 130.663 189.36C131.623 188.976 132.434 188.443 133.095 187.76C133.756 187.077 134.258 186.277 134.599 185.36C134.962 184.421 135.143 183.387 135.143 182.256C135.143 181.083 134.962 180.037 134.599 179.12C134.258 178.181 133.756 177.381 133.095 176.72C132.434 176.059 131.623 175.557 130.663 175.216C129.724 174.875 128.647 174.704 127.431 174.704H122.599V170.48H127.143C129.255 170.48 131.1 170.789 132.679 171.408C134.258 172.027 135.57 172.88 136.615 173.968C137.66 175.035 138.439 176.261 138.951 177.648C139.484 179.013 139.751 180.432 139.751 181.904V182.608C139.751 184.016 139.484 185.403 138.951 186.768C138.439 188.133 137.66 189.371 136.615 190.48C135.57 191.589 134.258 192.475 132.679 193.136C131.1 193.797 129.255 194.128 127.143 194.128H122.599ZM118.695 194.128V170.48H123.239V194.128H118.695ZM140.999 194V188.88H145.991V194H140.999Z" fill="#0087FF"/>
</svg>
