<svg xmlns="http://www.w3.org/2000/svg" xmlns:xlink="http://www.w3.org/1999/xlink" width="500" zoomAndPan="magnify" viewBox="0 0 375 374.999991" height="500" preserveAspectRatio="xMidYMid meet" version="1.0"><defs><clipPath id="7057c551b7"><path d="M 80 43 L 248 43 L 248 343.980469 L 80 343.980469 Z M 80 43 " clip-rule="nonzero"/></clipPath><clipPath id="79bda1fbc6"><path d="M 55.5 116 L 97 116 L 97 341 L 55.5 341 Z M 55.5 116 " clip-rule="nonzero"/></clipPath><clipPath id="1b2ac9afde"><path d="M 204 206 L 294.75 206 L 294.75 322 L 204 322 Z M 204 206 " clip-rule="nonzero"/></clipPath><clipPath id="9345019be9"><path d="M 271.125 37.5 L 337.125 37.5 L 337.125 69 L 271.125 69 Z M 271.125 37.5 " clip-rule="nonzero"/></clipPath></defs><g clip-path="url(#7057c551b7)"><path fill="#007aff" d="M 104.902344 343.269531 C 100.839844 343.269531 97.078125 342.3125 93.746094 340.394531 C 85.785156 335.808594 81.390625 326.328125 81.363281 313.695312 L 80.925781 166.980469 C 80.878906 141.632812 98.777344 110.652344 120.820312 97.917969 L 204.820312 49.449219 C 215.90625 43.054688 226.421875 42.058594 234.445312 46.667969 C 242.421875 51.25 246.84375 60.75 246.894531 73.414062 L 247.230469 201.285156 C 247.230469 202.15625 246.652344 202.925781 245.816406 203.15625 C 242.625 204.054688 239.113281 205.574219 235.382812 207.679688 C 212.085938 221.128906 193.1875 253.878906 193.285156 280.679688 C 193.324219 285.863281 194.039062 290.425781 195.398438 294.230469 C 195.710938 295.117188 195.351562 296.097656 194.542969 296.566406 L 123.4375 337.617188 C 116.933594 341.371094 110.625 343.269531 104.902344 343.269531 Z M 223.308594 47.691406 C 218.277344 47.691406 212.644531 49.410156 206.757812 52.808594 L 122.761719 101.277344 C 101.785156 113.390625 84.761719 142.863281 84.808594 166.96875 L 85.242188 313.683594 C 85.261719 324.878906 88.96875 333.171875 95.679688 337.035156 C 102.464844 340.945312 111.632812 339.957031 121.496094 334.257812 L 191.238281 293.996094 C 190.066406 290.117188 189.449219 285.660156 189.402344 280.703125 C 189.308594 252.652344 209.070312 218.386719 233.460938 204.3125 C 236.941406 202.347656 240.253906 200.855469 243.347656 199.851562 L 243.011719 73.425781 C 242.96875 62.203125 239.238281 53.898438 232.515625 50.03125 C 229.792969 48.46875 226.6875 47.691406 223.308594 47.691406 Z M 223.308594 47.691406 " fill-opacity="1" fill-rule="nonzero"/></g><g clip-path="url(#79bda1fbc6)"><path fill="#007aff" d="M 94.652344 340.625 C 94.324219 340.625 93.984375 340.539062 93.679688 340.359375 L 68.488281 325.695312 C 60.574219 321.132812 56.183594 311.664062 56.128906 299.039062 L 55.714844 152.34375 C 55.699219 141.679688 58.902344 129.449219 64.730469 117.894531 C 64.96875 117.417969 65.398438 117.058594 65.90625 116.910156 C 66.429688 116.753906 66.972656 116.824219 67.4375 117.09375 L 92.640625 131.738281 C 93.527344 132.253906 93.859375 133.371094 93.398438 134.285156 C 87.835938 145.320312 84.796875 156.933594 84.839844 166.992188 L 85.25 313.644531 C 85.25 324.804688 88.9375 333.101562 95.628906 337.007812 C 96.554688 337.546875 96.867188 338.734375 96.328125 339.65625 C 95.96875 340.277344 95.320312 340.625 94.652344 340.625 Z M 59.597656 152.332031 L 60.011719 299.027344 C 60.058594 310.210938 63.757812 318.488281 70.433594 322.339844 L 84.925781 330.777344 C 82.59375 326.109375 81.367188 320.3125 81.367188 313.648438 L 80.960938 167.007812 C 80.921875 156.855469 83.8125 145.261719 89.128906 134.179688 L 67.285156 121.492188 C 62.300781 131.945312 59.578125 142.828125 59.597656 152.332031 Z M 59.597656 152.332031 " fill-opacity="1" fill-rule="nonzero"/></g><path fill="#007aff" d="M 91.667969 135.355469 C 91.324219 135.355469 90.988281 135.265625 90.691406 135.089844 L 65.488281 120.445312 C 64.601562 119.929688 64.269531 118.8125 64.730469 117.898438 C 72.316406 102.851562 83.578125 90.226562 95.625 83.261719 L 179.570312 34.773438 C 190.753906 28.375 201.320312 27.410156 209.316406 32.070312 L 234.554688 46.734375 C 235.480469 47.277344 235.792969 48.464844 235.253906 49.386719 C 234.714844 50.316406 233.53125 50.632812 232.605469 50.085938 L 232.566406 50.070312 C 225.75 46.109375 216.589844 47.085938 206.757812 52.792969 L 122.753906 101.289062 C 111.347656 107.882812 100.652344 119.910156 93.398438 134.285156 C 93.15625 134.761719 92.730469 135.121094 92.21875 135.273438 C 92.035156 135.328125 91.851562 135.355469 91.667969 135.355469 Z M 69.03125 118.019531 L 90.882812 130.714844 C 98.4375 116.492188 109.261719 104.609375 120.816406 97.925781 L 204.8125 49.4375 C 210.746094 45.996094 216.519531 44.125 221.839844 43.835938 L 207.367188 35.421875 C 200.617188 31.488281 191.429688 32.449219 181.507812 38.136719 L 97.566406 86.625 C 86.589844 92.96875 76.257812 104.351562 69.03125 118.019531 Z M 69.03125 118.019531 " fill-opacity="1" fill-rule="nonzero"/><path fill="#007aff" d="M 184.703125 233.976562 C 184.664062 232.699219 184.644531 231.546875 184.640625 230.351562 L 184.632812 229.421875 C 184.648438 228.636719 184.386719 228.050781 183.886719 227.753906 C 183.390625 227.460938 182.722656 227.527344 182.023438 227.925781 C 180.746094 228.652344 179.695312 230.464844 179.675781 231.957031 L 179.675781 232.917969 C 179.679688 234.265625 179.710938 235.453125 179.738281 236.652344 L 179.738281 236.980469 C 179.738281 237.4375 179.75 237.878906 179.753906 238.339844 C 179.765625 238.921875 179.773438 239.515625 179.773438 240.15625 C 179.773438 240.917969 180.054688 241.492188 180.546875 241.78125 C 180.761719 241.902344 181 241.960938 181.257812 241.960938 C 181.609375 241.960938 181.996094 241.847656 182.394531 241.617188 C 183.6875 240.875 184.738281 239.039062 184.738281 237.527344 C 184.738281 236.929688 184.730469 236.363281 184.722656 235.8125 C 184.714844 235.195312 184.703125 234.597656 184.703125 233.976562 Z M 184.703125 233.976562 " fill-opacity="1" fill-rule="nonzero"/><path fill="#007aff" d="M 179.046875 173.164062 C 177.875 170.664062 175.996094 168.949219 173.621094 168.207031 C 170.59375 167.25 166.796875 167.9375 162.964844 170.160156 C 160.707031 171.464844 158.476562 173.261719 156.34375 175.507812 C 150.144531 182.058594 146.035156 191.394531 145.867188 199.285156 C 145.800781 201.917969 146.1875 204.257812 147.03125 206.21875 C 147.90625 208.757812 152.199219 223.519531 151.09375 264.84375 C 151.0625 265.65625 151.324219 266.277344 151.816406 266.589844 C 152.027344 266.726562 152.261719 266.789062 152.523438 266.789062 C 152.875 266.789062 153.269531 266.675781 153.714844 266.441406 C 154.996094 265.699219 156.003906 263.992188 156.058594 262.46875 C 157.175781 220.933594 152.984375 205.5625 151.667969 201.824219 C 151.066406 200.417969 150.789062 198.738281 150.832031 196.84375 C 150.949219 191.117188 153.9375 184.34375 158.453125 179.585938 C 159.949219 177.988281 161.558594 176.691406 163.238281 175.71875 C 166.003906 174.121094 168.59375 173.636719 170.746094 174.308594 C 172.382812 174.820312 173.683594 176.011719 174.511719 177.757812 C 174.792969 178.355469 175.464844 179.753906 176.210938 182.574219 C 177.695312 187.972656 179.554688 198.691406 180.003906 219.109375 C 180.019531 219.851562 180.296875 220.414062 180.789062 220.691406 C 181.304688 220.980469 181.96875 220.90625 182.671875 220.503906 C 183.972656 219.726562 185.003906 217.890625 184.96875 216.410156 C 184.578125 199.789062 183.210938 186.714844 181.023438 178.609375 C 180.148438 175.488281 179.375 173.855469 179.046875 173.164062 Z M 179.046875 173.164062 " fill-opacity="1" fill-rule="nonzero"/><path fill="#007aff" d="M 196.082031 169.304688 C 195.273438 165.234375 194.15625 161.753906 192.671875 158.664062 C 190.253906 153.511719 186.558594 150.039062 182 148.613281 C 176.695312 146.941406 170.421875 148.0625 163.882812 151.847656 C 161.511719 153.214844 159.203125 154.835938 157.015625 156.660156 C 155.75 157.710938 154.945312 159.625 155.234375 160.9375 C 155.359375 161.488281 155.667969 161.890625 156.09375 162.074219 C 156.585938 162.285156 157.199219 162.199219 157.835938 161.832031 L 158.328125 161.488281 C 160.230469 159.910156 162.191406 158.53125 164.15625 157.398438 C 169.582031 154.277344 174.765625 153.351562 179.15625 154.726562 C 182.972656 155.921875 186.078125 158.863281 188.132812 163.226562 C 189.539062 166.246094 190.605469 169.691406 191.402344 173.746094 C 193.0625 182.742188 194.863281 197.007812 194.015625 227.734375 C 193.984375 228.46875 194.246094 229.09375 194.75 229.460938 C 194.984375 229.589844 195.234375 229.65625 195.503906 229.65625 C 195.847656 229.65625 196.226562 229.546875 196.628906 229.332031 C 197.902344 228.597656 198.957031 226.8125 198.976562 225.359375 C 199.644531 200.605469 198.789062 183.546875 196.214844 170.046875 Z M 196.082031 169.304688 " fill-opacity="1" fill-rule="nonzero"/><path fill="#007aff" d="M 137.679688 215.570312 C 136.8125 212.425781 136.414062 208.917969 136.503906 205.148438 C 136.710938 195.625 140.28125 180.746094 147.609375 170.574219 C 148.113281 169.890625 148.453125 169.070312 148.574219 168.273438 C 148.6875 167.484375 148.527344 166.785156 148.128906 166.347656 C 147.605469 165.832031 146.800781 165.800781 145.988281 166.277344 C 145.53125 166.535156 145.0625 166.984375 144.617188 167.574219 C 135.90625 179.683594 131.773438 196.378906 131.542969 207.558594 C 131.449219 211.859375 131.902344 215.878906 132.902344 219.527344 C 132.921875 219.582031 132.941406 219.648438 132.960938 219.726562 C 133 219.863281 133.046875 220.03125 133.109375 220.214844 C 136.898438 231.59375 137.183594 253.039062 136.753906 269.027344 C 136.722656 269.84375 136.988281 270.457031 137.464844 270.730469 C 137.640625 270.851562 137.886719 270.960938 138.214844 270.960938 C 138.523438 270.960938 138.902344 270.871094 139.371094 270.617188 C 140.632812 269.890625 141.667969 268.148438 141.71875 266.652344 C 142.355469 242.808594 141.050781 225.785156 137.839844 216.042969 Z M 137.679688 215.570312 " fill-opacity="1" fill-rule="nonzero"/><path fill="#007aff" d="M 209.132812 162.660156 C 208.492188 158.351562 207.527344 154.425781 206.199219 150.644531 C 203.585938 143.355469 198.261719 137.84375 191.210938 135.136719 C 183.054688 132.007812 173.3125 132.921875 164.460938 137.671875 C 163.921875 137.953125 163.363281 138.25 162.828125 138.558594 L 162.824219 138.558594 C 156.964844 141.941406 151.199219 146.613281 145.675781 152.449219 C 129.144531 169.949219 118.414062 194.589844 118.339844 215.214844 C 118.304688 220.078125 118.890625 224.617188 120.070312 228.703125 C 120.761719 231.136719 121.3125 233.1875 121.652344 235.496094 C 122.4375 241.101562 122.671875 251.472656 122.40625 269.117188 C 122.390625 269.910156 122.660156 270.511719 123.160156 270.8125 C 123.375 270.941406 123.625 271.007812 123.890625 271.007812 C 124.238281 271.007812 124.621094 270.898438 125.015625 270.671875 C 126.292969 269.945312 127.347656 268.132812 127.367188 266.644531 C 127.632812 248.554688 127.382812 237.90625 126.558594 232.132812 C 126.167969 229.371094 125.480469 226.808594 124.851562 224.667969 C 123.789062 221.050781 123.265625 217.023438 123.304688 212.703125 C 123.386719 194.21875 132.996094 172.167969 147.789062 156.527344 C 152.683594 151.328125 157.820312 147.164062 163.042969 144.148438 C 163.53125 143.863281 164.023438 143.601562 164.605469 143.304688 C 172.253906 139.195312 180.832031 138.445312 188.140625 141.246094 C 194.472656 143.679688 199.21875 148.527344 201.511719 154.898438 C 202.691406 158.246094 203.589844 161.914062 204.253906 166.105469 C 205.5625 174.484375 205.308594 185.222656 204.953125 200.113281 L 204.742188 209.183594 C 204.714844 209.976562 204.972656 210.585938 205.464844 210.890625 C 205.957031 211.199219 206.625 211.167969 207.363281 210.773438 C 208.625 210.046875 209.65625 208.289062 209.703125 206.777344 L 209.917969 197.703125 L 209.921875 197.558594 C 210.273438 182.796875 210.519531 172.128906 209.210938 163.117188 Z M 209.132812 162.660156 " fill-opacity="1" fill-rule="nonzero"/><path fill="#007aff" d="M 216.03125 133.78125 C 212.148438 125.539062 205.976562 119.898438 198.171875 117.453125 C 188.105469 114.296875 175.566406 116.613281 162.835938 123.964844 C 155.226562 128.359375 147.789062 134.355469 140.738281 141.796875 C 137.898438 144.796875 135.496094 148.097656 133.164062 151.292969 L 132.851562 151.730469 C 132.113281 152.746094 131.238281 153.941406 130.316406 155.15625 C 129.796875 155.863281 129.441406 156.675781 129.308594 157.445312 C 129.167969 158.234375 129.296875 158.921875 129.683594 159.402344 C 130.1875 159.980469 131.035156 160.039062 131.894531 159.535156 C 132.332031 159.289062 132.769531 158.882812 133.175781 158.351562 C 134.082031 157.148438 134.992188 155.898438 135.863281 154.683594 L 136.019531 154.476562 C 138.289062 151.371094 140.433594 148.441406 142.851562 145.875 C 149.28125 139.074219 156.09375 133.570312 163.109375 129.515625 C 174.71875 122.8125 186.152344 120.714844 195.292969 123.558594 C 202.351562 125.769531 207.941406 130.890625 211.464844 138.359375 C 215.804688 147.585938 218.191406 155.808594 218.964844 164.222656 C 219.023438 164.890625 219.304688 165.386719 219.757812 165.621094 C 219.917969 165.707031 220.136719 165.777344 220.410156 165.777344 C 220.765625 165.777344 221.214844 165.667969 221.777344 165.339844 C 223.085938 164.421875 224.019531 162.578125 223.898438 161.140625 C 223.054688 152.070312 220.554688 143.378906 216.03125 133.78125 Z M 216.03125 133.78125 " fill-opacity="1" fill-rule="nonzero"/><path fill="#007aff" d="M 164.59375 186.902344 C 164.132812 186.753906 163.609375 186.855469 163.039062 187.179688 C 162.699219 187.378906 162.398438 187.613281 162.121094 187.90625 C 160.902344 189.191406 160.359375 191.101562 160.878906 192.253906 C 160.9375 192.378906 166.472656 205.382812 165.105469 256.785156 C 165.070312 257.769531 165.457031 258.261719 165.816406 258.515625 C 165.996094 258.621094 166.246094 258.710938 166.566406 258.710938 C 166.882812 258.710938 167.265625 258.628906 167.722656 258.378906 C 169 257.644531 170.019531 255.902344 170.039062 254.425781 C 171.527344 200.078125 165.480469 187.773438 165.425781 187.667969 C 165.246094 187.285156 164.960938 187.023438 164.59375 186.902344 Z M 164.59375 186.902344 " fill-opacity="1" fill-rule="nonzero"/><path fill="#007aff" d="M 109.320312 220.84375 C 109.6875 202.851562 113.972656 187.414062 122.8125 172.25 C 123.25 171.492188 123.5 170.648438 123.5 169.933594 C 123.496094 169.140625 123.234375 168.558594 122.738281 168.242188 C 122.246094 167.953125 121.5625 168.023438 120.878906 168.414062 C 120.261719 168.769531 119.652344 169.410156 119.21875 170.164062 C 109.46875 186.898438 104.75 203.769531 104.359375 223.253906 C 104.125 234.835938 105.3125 244.445312 108.101562 253.492188 C 108.257812 253.980469 108.554688 254.320312 108.964844 254.480469 C 109.128906 254.546875 109.304688 254.574219 109.488281 254.574219 C 109.847656 254.574219 110.242188 254.457031 110.652344 254.222656 L 111.292969 253.722656 C 111.902344 253.179688 112.402344 252.441406 112.695312 251.640625 C 112.992188 250.796875 113.042969 250.011719 112.851562 249.4375 C 110.238281 240.929688 109.113281 231.84375 109.320312 220.84375 Z M 109.320312 220.84375 " fill-opacity="1" fill-rule="nonzero"/><path fill="#007aff" d="M 218.867188 318.96875 C 218.535156 318.96875 218.203125 318.882812 217.898438 318.707031 L 203.003906 310.121094 C 194.28125 305.039062 189.457031 294.585938 189.40625 280.675781 C 189.3125 252.644531 209.078125 218.386719 233.476562 204.316406 C 245.777344 197.234375 257.410156 196.160156 266.257812 201.300781 L 280.921875 209.710938 C 280.996094 209.753906 281.074219 209.796875 281.148438 209.839844 C 282.074219 210.375 282.390625 211.558594 281.855469 212.484375 C 281.320312 213.414062 280.132812 213.734375 279.207031 213.195312 L 279.011719 213.082031 C 271.445312 208.804688 261.265625 209.925781 250.308594 216.261719 C 226.984375 229.710938 208.085938 262.449219 208.175781 289.25 C 208.21875 301.722656 212.359375 310.996094 219.84375 315.351562 C 220.765625 315.890625 221.082031 317.074219 220.542969 317.996094 C 220.183594 318.617188 219.535156 318.96875 218.867188 318.96875 Z M 253.894531 201.980469 C 248.277344 201.980469 241.984375 203.894531 235.410156 207.675781 C 212.09375 221.128906 193.195312 253.871094 193.289062 280.664062 C 193.332031 293.136719 197.472656 302.410156 204.953125 306.765625 L 208.632812 308.890625 C 205.816406 303.625 204.320312 296.976562 204.292969 289.261719 C 204.203125 261.226562 223.976562 226.96875 248.367188 212.902344 C 255.171875 208.96875 261.78125 206.882812 267.820312 206.667969 L 264.316406 204.65625 C 261.242188 202.867188 257.722656 201.980469 253.894531 201.980469 Z M 253.894531 201.980469 " fill-opacity="1" fill-rule="nonzero"/><g clip-path="url(#1b2ac9afde)"><path fill="#007aff" d="M 230.214844 321.882812 C 225.753906 321.882812 221.617188 320.835938 217.953125 318.730469 C 209.183594 313.679688 204.328125 303.214844 204.285156 289.261719 C 204.207031 261.226562 223.988281 226.960938 248.378906 212.882812 C 260.625 205.816406 272.226562 204.730469 281.054688 209.8125 C 289.824219 214.855469 294.683594 225.324219 294.726562 239.277344 C 294.800781 267.308594 275.011719 301.578125 250.605469 315.667969 C 243.449219 319.796875 236.507812 321.882812 230.214844 321.882812 Z M 268.785156 210.539062 C 263.167969 210.539062 256.882812 212.453125 250.320312 216.242188 C 227 229.699219 208.089844 262.449219 208.164062 289.25 C 208.199219 301.761719 212.363281 311.039062 219.890625 315.371094 C 227.476562 319.726562 237.695312 318.640625 248.664062 312.308594 C 271.996094 298.835938 290.917969 266.082031 290.84375 239.285156 C 290.808594 226.777344 286.644531 217.5 279.117188 213.171875 C 276.066406 211.410156 272.578125 210.539062 268.785156 210.539062 Z M 249.351562 214.5625 L 249.398438 214.5625 Z M 249.351562 214.5625 " fill-opacity="1" fill-rule="nonzero"/></g><path fill="#007aff" d="M 241.980469 288.152344 C 241.648438 288.152344 241.316406 288.066406 241.015625 287.894531 L 230.722656 281.992188 C 229.796875 281.460938 229.476562 280.273438 230.011719 279.34375 C 230.535156 278.414062 231.726562 278.09375 232.65625 278.628906 L 241.269531 283.566406 L 265.636719 241.359375 C 266.175781 240.429688 267.359375 240.125 268.289062 240.648438 C 269.214844 241.183594 269.535156 242.371094 269 243.300781 L 243.660156 287.183594 C 243.300781 287.804688 242.648438 288.152344 241.980469 288.152344 Z M 241.980469 288.152344 " fill-opacity="1" fill-rule="nonzero"/><g clip-path="url(#9345019be9)"><path fill="#007aff" d="M 337.046875 53.886719 C 337.046875 61.726562 331.378906 68.238281 323.921875 69.5625 L 323.921875 80.46875 L 313.261719 69.8125 L 287.492188 69.8125 C 278.695312 69.8125 271.566406 62.683594 271.566406 53.886719 C 271.566406 45.089844 278.695312 37.960938 287.492188 37.960938 L 321.121094 37.960938 C 329.917969 37.960938 337.046875 45.089844 337.046875 53.886719 Z M 337.046875 53.886719 " fill-opacity="1" fill-rule="nonzero"/><path fill="#fff8f5" d="M 321.121094 37.519531 L 287.492188 37.519531 C 278.46875 37.519531 271.125 44.863281 271.125 53.886719 C 271.125 62.910156 278.46875 70.253906 287.492188 70.253906 L 313.082031 70.253906 L 323.609375 80.78125 C 323.691406 80.867188 323.804688 80.910156 323.921875 80.910156 C 323.976562 80.910156 324.035156 80.902344 324.089844 80.878906 C 324.253906 80.808594 324.363281 80.648438 324.363281 80.46875 L 324.363281 69.929688 C 331.992188 68.398438 337.488281 61.710938 337.488281 53.886719 C 337.488281 44.863281 330.144531 37.519531 321.121094 37.519531 Z M 323.84375 69.125 C 323.632812 69.164062 323.480469 69.347656 323.480469 69.5625 L 323.480469 79.402344 L 313.574219 69.5 C 313.492188 69.417969 313.382812 69.371094 313.261719 69.371094 L 287.492188 69.371094 C 278.953125 69.371094 272.007812 62.425781 272.007812 53.886719 C 272.007812 45.347656 278.953125 38.402344 287.492188 38.402344 L 321.121094 38.402344 C 329.660156 38.402344 336.605469 45.347656 336.605469 53.886719 C 336.605469 61.40625 331.238281 67.8125 323.84375 69.125 Z M 304.320312 47.640625 L 305.488281 47.640625 L 305.488281 60.546875 L 304.320312 60.546875 Z M 314.390625 51.71875 C 313.710938 51.300781 312.945312 51.089844 312.101562 51.089844 C 311.253906 51.089844 310.492188 51.300781 309.816406 51.71875 C 309.140625 52.132812 308.609375 52.703125 308.226562 53.425781 C 307.84375 54.148438 307.652344 54.957031 307.652344 55.859375 C 307.652344 56.785156 307.84375 57.617188 308.226562 58.355469 C 308.609375 59.09375 309.140625 59.671875 309.816406 60.089844 C 310.492188 60.507812 311.253906 60.714844 312.101562 60.714844 C 312.957031 60.714844 313.726562 60.503906 314.410156 60.082031 C 315.089844 59.65625 315.625 59.078125 316.007812 58.339844 C 316.390625 57.601562 316.582031 56.773438 316.582031 55.859375 C 316.582031 54.957031 316.386719 54.148438 316 53.425781 C 315.609375 52.703125 315.074219 52.132812 314.390625 51.71875 Z M 315.042969 57.839844 C 314.75 58.425781 314.34375 58.886719 313.824219 59.226562 C 313.308594 59.566406 312.730469 59.734375 312.101562 59.734375 C 311.46875 59.734375 310.898438 59.566406 310.390625 59.234375 C 309.886719 58.902344 309.484375 58.441406 309.191406 57.847656 C 308.898438 57.257812 308.75 56.59375 308.75 55.859375 C 308.75 55.152344 308.894531 54.503906 309.183594 53.925781 C 309.472656 53.34375 309.871094 52.890625 310.382812 52.5625 C 310.898438 52.234375 311.46875 52.070312 312.101562 52.070312 C 312.742188 52.070312 313.320312 52.238281 313.835938 52.570312 C 314.347656 52.902344 314.75 53.359375 315.042969 53.933594 C 315.335938 54.507812 315.484375 55.152344 315.484375 55.859375 C 315.484375 56.59375 315.335938 57.253906 315.042969 57.839844 Z M 316.042969 47.640625 L 326.292969 47.640625 L 326.292969 48.6875 L 321.742188 48.6875 L 321.742188 60.546875 L 320.574219 60.546875 L 320.574219 48.6875 L 316.042969 48.6875 Z M 288.523438 45.40625 C 283.847656 45.40625 280.042969 49.210938 280.042969 53.886719 C 280.042969 58.5625 283.847656 62.367188 288.523438 62.367188 C 293.199219 62.367188 297.003906 58.5625 297.003906 53.886719 C 297.003906 49.210938 293.199219 45.40625 288.523438 45.40625 Z M 285.695312 46.839844 C 284.925781 47.714844 284.316406 48.945312 283.9375 50.402344 L 281.78125 50.402344 C 282.613281 48.792969 284.003906 47.523438 285.695312 46.839844 Z M 280.925781 53.886719 C 280.925781 52.972656 281.097656 52.097656 281.394531 51.285156 L 283.738281 51.285156 C 283.585938 52.101562 283.503906 52.976562 283.503906 53.886719 C 283.503906 54.796875 283.585938 55.671875 283.738281 56.488281 L 281.394531 56.488281 C 281.097656 55.675781 280.925781 54.800781 280.925781 53.886719 Z M 281.78125 57.371094 L 283.9375 57.371094 C 284.316406 58.828125 284.925781 60.058594 285.695312 60.933594 C 284.003906 60.25 282.613281 58.980469 281.78125 57.371094 Z M 288.082031 61.4375 C 286.703125 61.152344 285.503906 59.5625 284.871094 57.371094 L 288.082031 57.371094 Z M 288.082031 56.488281 L 284.652344 56.488281 C 284.484375 55.671875 284.390625 54.796875 284.390625 53.886719 C 284.390625 52.976562 284.484375 52.101562 284.652344 51.285156 L 288.082031 51.285156 Z M 288.082031 50.402344 L 284.871094 50.402344 C 285.503906 48.214844 286.703125 46.621094 288.082031 46.335938 Z M 288.964844 46.335938 C 290.34375 46.621094 291.542969 48.214844 292.175781 50.402344 L 288.964844 50.402344 Z M 288.964844 51.285156 L 292.394531 51.285156 C 292.5625 52.101562 292.65625 52.976562 292.65625 53.886719 C 292.65625 54.796875 292.5625 55.671875 292.394531 56.488281 L 288.964844 56.488281 Z M 288.964844 61.4375 L 288.964844 57.371094 L 292.175781 57.371094 C 291.542969 59.5625 290.34375 61.152344 288.964844 61.4375 Z M 291.351562 60.933594 C 292.121094 60.058594 292.730469 58.828125 293.109375 57.371094 L 295.265625 57.371094 C 294.433594 58.980469 293.042969 60.25 291.351562 60.933594 Z M 296.121094 53.886719 C 296.121094 54.800781 295.949219 55.675781 295.652344 56.488281 L 293.308594 56.488281 C 293.460938 55.671875 293.542969 54.796875 293.542969 53.886719 C 293.542969 52.976562 293.460938 52.101562 293.308594 51.285156 L 295.652344 51.285156 C 295.949219 52.097656 296.121094 52.972656 296.121094 53.886719 Z M 293.109375 50.402344 C 292.730469 48.945312 292.121094 47.714844 291.351562 46.839844 C 293.042969 47.523438 294.433594 48.792969 295.265625 50.402344 Z M 293.109375 50.402344 " fill-opacity="1" fill-rule="nonzero"/></g></svg>