<svg xmlns="http://www.w3.org/2000/svg" xmlns:xlink="http://www.w3.org/1999/xlink" width="500" zoomAndPan="magnify" viewBox="0 0 375 374.999991" height="500" preserveAspectRatio="xMidYMid meet" version="1.0"><defs><g/><clipPath id="31ab063a0e"><path d="M 116.390625 124.855469 L 242 124.855469 L 242 250.464844 L 116.390625 250.464844 Z M 116.390625 124.855469 " clip-rule="nonzero"/></clipPath></defs><g fill="#007aff" fill-opacity="1"><g transform="translate(21.314243, 251.365627)"><g><path d="M 41.921875 1.71875 C 31.765625 1.71875 23.328125 -0.203125 16.609375 -4.046875 C 9.898438 -7.898438 5.019531 -13.070312 1.96875 -19.5625 L 15.3125 -35.78125 L 17.359375 -35.78125 C 19.546875 -30.539062 22.644531 -26.40625 26.65625 -23.375 C 30.664062 -20.34375 35.316406 -18.828125 40.609375 -18.828125 C 46.554688 -18.828125 50.976562 -20.5625 53.875 -24.03125 C 56.769531 -27.5 58.21875 -33.132812 58.21875 -40.9375 L 58.21875 -119.703125 L 81.796875 -119.703125 L 81.796875 -40.53125 C 81.796875 -26.0625 78.503906 -15.398438 71.921875 -8.546875 C 65.347656 -1.703125 55.347656 1.71875 41.921875 1.71875 Z M 41.921875 1.71875 "/></g></g></g><g fill="#007aff" fill-opacity="1"><g transform="translate(117.941721, 251.365627)"><g/></g></g><g fill="#007aff" fill-opacity="1"><g transform="translate(157.486888, 251.365627)"><g/></g></g><g fill="#007aff" fill-opacity="1"><g transform="translate(197.032055, 251.365627)"><g/></g></g><g fill="#007aff" fill-opacity="1"><g transform="translate(236.584421, 251.365627)"><g><path d="M 15.5625 0 L 15.5625 -119.703125 L 66.65625 -119.703125 C 74.019531 -119.703125 80.253906 -118.539062 85.359375 -116.21875 C 90.460938 -113.90625 94.320312 -110.601562 96.9375 -106.3125 C 99.5625 -102.03125 100.875 -96.96875 100.875 -91.125 C 100.875 -85.832031 99.585938 -81.164062 97.015625 -77.125 C 94.453125 -73.09375 90.769531 -69.847656 85.96875 -67.390625 L 85.96875 -65.671875 C 93.5 -63.703125 99.3125 -60.125 103.40625 -54.9375 C 107.5 -49.75 109.546875 -43.390625 109.546875 -35.859375 C 109.546875 -24.398438 106.09375 -15.554688 99.1875 -9.328125 C 92.289062 -3.109375 82.046875 0 68.453125 0 Z M 61.734375 -71.96875 C 72.765625 -71.96875 78.28125 -76.9375 78.28125 -86.875 C 78.28125 -91.945312 76.914062 -95.722656 74.1875 -98.203125 C 71.457031 -100.691406 67.304688 -101.9375 61.734375 -101.9375 L 39.21875 -101.9375 L 39.21875 -71.96875 Z M 66.078125 -18.75 C 79.117188 -18.75 85.640625 -24.671875 85.640625 -36.515625 C 85.640625 -48.421875 79.117188 -54.375 66.078125 -54.375 L 39.21875 -54.375 L 39.21875 -18.75 Z M 66.078125 -18.75 "/></g></g></g><g clip-path="url(#31ab063a0e)"><path fill="#007aff" d="M 166.671875 172.332031 L 190.574219 157.496094 L 190.574219 217.5 L 166.671875 202.664062 C 166.507812 202.5 166.175781 202.335938 165.847656 202.335938 L 152.660156 202.335938 C 149.855469 202.335938 147.710938 200.191406 147.710938 197.390625 L 147.710938 177.609375 C 147.710938 174.804688 149.855469 172.660156 152.660156 172.660156 L 165.847656 172.660156 C 166.175781 172.660156 166.507812 172.496094 166.671875 172.332031 Z M 241.679688 187.5 C 241.679688 222.117188 213.652344 250.140625 179.035156 250.140625 C 144.414062 250.140625 116.390625 222.117188 116.390625 187.5 C 116.390625 152.878906 144.414062 124.855469 179.035156 124.855469 C 213.652344 124.855469 241.679688 152.878906 241.679688 187.5 Z M 193.871094 154.527344 C 193.871094 153.867188 193.542969 153.375 193.046875 153.042969 C 192.550781 152.714844 191.894531 152.714844 191.398438 153.042969 L 165.351562 169.363281 L 152.660156 169.363281 C 148.042969 169.363281 144.414062 172.992188 144.414062 177.609375 L 144.414062 197.390625 C 144.414062 202.003906 148.042969 205.632812 152.660156 205.632812 L 165.351562 205.632812 L 191.398438 221.789062 C 191.726562 221.953125 191.894531 222.117188 192.222656 222.117188 C 192.550781 222.117188 192.71875 222.117188 193.046875 221.953125 C 193.542969 221.625 193.871094 221.128906 193.871094 220.46875 Z M 213.652344 187.5 C 213.652344 179.257812 207.058594 172.660156 198.816406 172.660156 L 198.816406 175.960938 C 205.246094 175.960938 210.355469 181.070312 210.355469 187.5 C 210.355469 193.929688 205.246094 199.039062 198.816406 199.039062 L 198.816406 202.335938 C 207.058594 202.335938 213.652344 195.742188 213.652344 187.5 Z M 213.652344 187.5 " fill-opacity="1" fill-rule="nonzero"/></g></svg>