<?xml version="1.0" encoding="utf-8" ?>
<svg xmlns="http://www.w3.org/2000/svg" xmlns:xlink="http://www.w3.org/1999/xlink" width="512" height="512">
	<path fill="#007AFF" d="M159.091 167.584C164.024 167.162 168.906 168.472 173.034 171.182C177.557 174.15 181.118 178.986 182.166 184.338L182.244 184.75C182.85 187.724 182.939 191.017 182.228 193.985L182.129 194.375C181.701 196.106 181.127 197.774 180.26 199.335L180.026 199.75L178.322 202.416C174.714 207.227 169.494 210.125 163.593 210.981C159.484 211.292 155.511 210.823 151.748 209.097C146.61 206.74 142.432 202.135 140.499 196.852C138.559 191.551 138.829 185.165 141.259 180.067C143.771 174.797 148.101 170.744 153.625 168.814C155.428 168.184 157.206 167.881 159.091 167.584Z"/>
	<path fill="#007AFF" d="M158.945 247.089C164.131 246.73 168.765 247.839 173.117 250.687C177.199 253.358 181.081 258.277 182.039 263.15C182.948 267.771 183.036 272.207 181.256 276.663C178.973 282.383 174.582 286.561 169 289.015C167.221 289.797 165.267 290.144 163.376 290.566C158.192 290.93 152.772 289.687 148.494 286.634C143.714 283.223 140.446 278.167 139.494 272.37C138.531 266.5 140.066 260.385 143.579 255.602C147.458 250.319 152.633 248.02 158.945 247.089Z"/>
	<path fill="#007AFF" d="M160.56 88.1054C164.958 88.0512 169.066 89.2332 172.772 91.5902C177.077 94.3291 180.951 99.1731 182.029 104.262L182.648 107.836C183.127 113.827 181.355 119.561 177.422 124.125C173.311 128.898 167.694 131.283 161.524 131.804C158.083 131.842 154.072 130.964 151.06 129.277L149.515 128.405C144.821 125.574 141.188 120.659 139.879 115.344C138.485 109.682 139.315 103.497 142.397 98.5139C145.488 93.5173 149.93 90.2289 155.625 88.7873C157.254 88.3749 158.89 88.2571 160.56 88.1054Z"/>
	<path fill="#007AFF" d="M238.451 93.8523L325.947 93.8208L358.217 93.8181C364.021 93.82 370.034 93.5043 375.816 93.9578C378.271 94.1504 380.713 94.7907 382.847 96.0478C386.234 98.044 389.326 101.562 390.242 105.454L390.335 105.875C390.964 108.605 390.981 111.452 390.288 114.18C389.263 118.223 386.138 121.745 382.625 123.862C380.134 125.364 377.567 125.697 374.739 125.944L342.439 125.962L279.761 125.97L252.925 125.968L242.555 125.962C239.57 125.96 236.439 126.114 233.537 125.284C229.406 124.104 225.618 120.716 223.632 116.943C221.911 113.675 221.613 108.721 222.788 105.257L222.899 104.944C224.131 101.352 226.293 98.2807 229.562 96.2683C232.416 94.5113 235.166 94.0997 238.451 93.8523Z"/>
	<path fill="#007AFF" d="M236.438 252.854C239.274 252.572 242.168 252.673 245.017 252.672L257.647 252.671L298.742 252.669L349.997 252.673L366.058 252.676C369.227 252.677 372.463 252.552 375.621 252.777C378.203 252.96 380.785 253.67 383 255.022C386.275 257.02 389.39 260.497 390.242 264.326L390.328 264.738C390.895 267.289 390.972 269.715 390.445 272.289C389.608 276.37 386.805 280.114 383.302 282.321C381.205 283.643 379.139 284.29 376.716 284.708C367.422 285.278 357.863 284.841 348.546 284.843L294.592 284.844L255.416 284.841L243.69 284.842C241.281 284.848 238.789 284.977 236.39 284.743C233.668 284.477 231.114 283.307 228.871 281.793C225.517 279.527 223.081 275.911 222.377 271.919C221.542 267.19 222.689 262.636 225.511 258.788C228.193 255.13 232.09 253.544 236.438 252.854Z"/>
	<path fill="#007AFF" d="M237.23 173.345L268.643 173.301L325.263 173.305L358.788 173.302C364.554 173.304 370.532 172.967 376.273 173.431C378.68 173.626 380.905 174.344 382.985 175.562C386.316 177.514 389.281 181.075 390.218 184.854L390.311 185.25C390.957 187.89 390.95 190.529 390.395 193.189C389.542 197.272 386.422 200.877 382.982 203.055C380.543 204.599 378.223 204.96 375.416 205.376L353.007 205.478L312.127 205.483L263.143 205.479L247.44 205.477C242.941 205.477 237.834 205.956 233.48 204.658C229.433 203.45 225.619 200.295 223.711 196.517C221.931 192.991 221.567 188.198 222.856 184.461L222.977 184.125C224.123 180.78 226.429 177.651 229.442 175.745C231.862 174.215 234.413 173.608 237.23 173.345Z"/>
	<path fill="#007AFF" d="M336.934 317.592C339.583 317.582 342.367 318.34 344.687 319.6C349.164 322.029 351.289 325.887 352.713 330.624L355.199 331.407C361.282 333.216 366.977 335.452 372.466 338.677C393.197 350.857 405.598 372.799 406.469 396.651L406.523 423.175L406.518 429.585C406.517 430.476 406.374 431.658 406.515 432.517C406.614 433.116 407.646 433.789 408.094 434.201L411.565 437.701C413.644 439.937 415.407 442.742 416.824 445.432C419.904 451.276 422.284 461.003 420.135 467.396L420.009 467.75C418.827 471.2 416.442 474.098 413.369 476.052C411.228 477.413 408.78 478.247 406.261 478.548C402.252 479.028 397.879 478.708 393.836 478.712L369.824 478.713L360.375 478.74C358.185 478.781 355.752 479.171 353.615 478.649L353.333 478.571C353.004 482.588 352.504 486.105 350.036 489.419C347.137 493.313 343.197 495.328 338.451 495.991C336.253 496.025 334.011 495.962 331.942 495.132L331.625 495.001C330.756 494.666 329.967 494.309 329.162 493.838C325.437 491.663 322.862 488.252 321.718 484.125C321.215 482.312 321.138 480.571 321.049 478.7L293.183 478.725L277.66 478.723C273.89 478.72 269.573 479.134 265.939 478.122L263.625 477.467C260.11 476.194 256.621 472.918 255.036 469.553L254.857 469.163C254.137 467.623 253.684 465.827 253.515 464.131C252.742 456.341 255.89 446.744 260.527 440.5C261.742 438.865 263.061 437.186 264.503 435.75C265.451 434.807 266.87 433.879 267.644 432.824C267.712 432.73 267.802 432.262 267.808 432.217C268.095 430.236 267.853 427.828 267.853 425.802L267.855 411.728C267.859 404.538 267.521 397.145 268.379 389.995C270.664 370.956 281.247 352.58 297.129 341.659C301.515 338.643 306.216 335.925 311.21 334.04L317.125 331.995C318.164 331.692 320.605 331.382 321.408 330.825C321.802 330.551 322.78 327.193 323.085 326.524C323.68 325.215 324.566 323.993 325.465 322.875C328.429 319.189 332.467 318.095 336.934 317.592ZM335.997 361.116C325.163 361.887 316.025 365.706 308.792 374.008C304.895 378.48 302.116 384.105 300.814 389.891C299.377 396.276 299.85 403.167 299.851 409.682L299.862 433.006C299.864 437.447 300.103 442.006 299.317 446.389L338.375 446.423L375.051 446.468C374.159 441.939 374.487 437.165 374.487 432.56L374.485 409.423C374.483 404.057 374.788 398.482 374.119 393.158C372.814 382.774 366.638 373.191 358.024 367.358C351.394 362.868 343.944 361.017 335.997 361.116Z"/>
	<path fill="#007AFF" d="M124.353 16.0966L144.407 15.9882L177.628 15.9836L278.494 15.9819L350.98 15.9881L374.297 15.9913C378.914 15.992 383.588 15.8366 388.193 16.1342C394.548 16.5447 400.868 18.0513 406.75 20.4833C421.68 26.6557 433.289 38.384 439.436 53.3001C441.835 59.1216 443.297 65.5764 443.666 71.8614L443.835 86.508L443.838 109.06L443.844 178.642L443.842 262.461L443.84 289.826L443.776 305.25C443.689 307.403 443.466 309.478 442.606 311.473C440.923 315.376 437.48 318.797 433.511 320.356C429.897 321.776 425.398 321.781 421.835 320.196L421.5 320.042C417.034 318.022 413.478 314.278 412.297 309.435C411.838 307.552 411.893 305.479 411.869 303.545L411.849 294.549L411.849 269.133L411.855 131.322L411.856 93.3316C411.856 85.7472 412.486 77.6288 411.208 70.1578C410.339 65.0783 407.477 59.9294 403.865 56.2844C400.265 52.6528 395.007 49.4901 389.908 48.7052C385.447 48.0185 381.01 48.0772 376.511 48.0767L361.453 48.0757L310.407 48.0756L130.738 48.0695C125.104 48.1353 119.735 48.6449 114.676 51.3388C108.166 54.806 103.463 60.7873 101.348 67.813C100.151 71.7893 100.162 75.7829 100.161 79.8874L100.159 91.5226L100.155 119.669L100.149 215.318L100.151 336.385L100.155 376.075L100.227 397.125C100.436 401.37 101.82 405.254 103.786 408.974C107.088 415.217 113.429 419.988 120.153 421.938C125.064 423.363 130.401 423.044 135.457 423.047L151.427 423.051L195.068 423.048L204.674 423.041C207.235 423.044 209.976 422.981 212.433 423.804L212.75 423.916L213.461 424.154C217.065 425.483 220.405 428.504 222.033 431.995L222.206 432.375C222.858 433.766 223.308 435.129 223.503 436.654C224.069 441.083 223.086 445.303 220.282 448.816C217.655 452.106 213.895 454.525 209.652 454.935C205.533 455.333 201.283 455.138 197.149 455.142L175.8 455.156L144.622 455.157C134.432 455.154 123.842 455.833 113.873 453.417C104.585 451.166 96.1701 446.687 88.875 440.554C77.2306 430.764 69.5722 415.689 68.375 400.55C67.7756 392.97 68.1618 385.134 68.1603 377.53L68.1544 335.944L68.1507 204.828L68.1573 112.271L68.1607 85.5435C68.1616 79.6802 67.8572 73.5916 68.6842 67.7769C70.3584 56.0055 75.3467 45.0646 83.1246 36.0677C93.5569 24.0004 108.627 17.3112 124.353 16.0966Z"/>
</svg>
