<svg xmlns="http://www.w3.org/2000/svg" xmlns:xlink="http://www.w3.org/1999/xlink" width="500" zoomAndPan="magnify" viewBox="0 0 375 374.999991" height="500" preserveAspectRatio="xMidYMid meet" version="1.0"><defs><g/><clipPath id="b037fb8f45"><path d="M 69 202 L 174.785156 202 L 174.785156 284.078125 L 69 284.078125 Z M 69 202 " clip-rule="nonzero"/></clipPath><clipPath id="028c93bc91"><path d="M 50 90.578125 L 104 90.578125 L 104 129 L 50 129 Z M 50 90.578125 " clip-rule="nonzero"/></clipPath><clipPath id="cdf6c54e3d"><path d="M 6.785156 137 L 62 137 L 62 275 L 6.785156 275 Z M 6.785156 137 " clip-rule="nonzero"/></clipPath><clipPath id="a1ba19da26"><path d="M 334 146 L 355 146 L 355 168 L 334 168 Z M 334 146 " clip-rule="nonzero"/></clipPath><clipPath id="0c1d8b586b"><path d="M 344.929688 146.5 C 345.515625 147.074219 345.855469 149.800781 346.28125 150.757812 C 347.824219 154.207031 350.570312 155.527344 353.957031 156.816406 L 354.109375 157.160156 C 353.5625 157.890625 352.640625 158.277344 351.863281 158.71875 C 346.644531 161.679688 347.070312 162.707031 344.992188 167.667969 C 344.15625 166.699219 343.722656 165.101562 343.078125 163.96875 C 340.996094 160.304688 338.136719 158.429688 334.144531 157.328125 C 335.117188 157.027344 336.101562 156.722656 337.035156 156.3125 C 341.722656 154.230469 343.1875 151.011719 344.929688 146.5 Z M 344.929688 146.5 " clip-rule="nonzero"/></clipPath><clipPath id="391b9cfc26"><path d="M 293 107 L 351 107 L 351 160 L 293 160 Z M 293 107 " clip-rule="nonzero"/></clipPath><clipPath id="9042fdcdde"><path d="M 320.96875 107.046875 C 321.929688 108.058594 321.847656 110.800781 322.320312 112.226562 C 322.871094 113.882812 323.667969 115.53125 324.496094 117.066406 C 328.210938 123.917969 335.058594 130.015625 342.71875 131.9375 C 345.308594 132.589844 348 132.417969 350.566406 133.183594 C 343.054688 134.164062 337.859375 135.4375 331.984375 140.464844 C 326.410156 145.238281 322.164062 151.96875 321.589844 159.394531 L 321.425781 159.585938 C 320.304688 158.878906 318.773438 152.609375 317.972656 150.882812 C 314.625 143.652344 308.503906 137.664062 300.945312 134.902344 C 298.621094 134.054688 296.144531 133.796875 293.804688 132.9375 C 297.699219 132.339844 301.003906 131.707031 304.554688 129.910156 C 314.347656 124.957031 317.757812 116.859375 320.96875 107.046875 Z M 320.96875 107.046875 " clip-rule="nonzero"/></clipPath></defs><g clip-path="url(#b037fb8f45)"><path fill="#007aff" d="M 161.273438 284.351562 L 82.730469 284.351562 C 75.367188 284.351562 69.414062 278.367188 69.414062 271.039062 C 69.414062 268.339844 70.238281 265.746094 71.75 263.507812 L 109.03125 209.03125 C 111.957031 204.726562 116.824219 202.160156 122.050781 202.160156 C 127.277344 202.160156 132.113281 204.726562 135.039062 209.03125 L 172.320312 263.507812 C 173.832031 265.746094 174.652344 268.339844 174.652344 271.039062 C 174.652344 278.402344 168.671875 284.351562 161.339844 284.351562 Z M 114.421875 212.714844 L 77.140625 267.191406 C 76.386719 268.308594 75.957031 269.65625 75.957031 271.003906 C 75.957031 274.71875 78.984375 277.746094 82.699219 277.746094 L 161.242188 277.746094 C 164.957031 277.746094 167.980469 274.71875 167.980469 271.003906 C 167.980469 269.625 167.585938 268.308594 166.796875 267.191406 L 129.515625 212.714844 C 127.804688 210.214844 124.976562 208.734375 121.953125 208.734375 C 118.929688 208.734375 116.101562 210.214844 114.390625 212.714844 Z M 114.421875 212.714844 " fill-opacity="1" fill-rule="nonzero"/></g><path fill="#007aff" d="M 121.984375 258.050781 C 118.402344 258.050781 115.441406 255.386719 115.113281 251.804688 L 112.8125 228.757812 C 112.550781 226.160156 113.40625 223.5625 115.148438 221.625 C 118.632812 217.777344 125.339844 217.777344 128.855469 221.625 C 130.597656 223.5625 131.453125 226.160156 131.191406 228.757812 L 128.890625 251.804688 C 128.527344 255.355469 125.570312 258.050781 122.019531 258.050781 Z M 121.984375 225.175781 C 121.230469 225.175781 120.507812 225.46875 120.011719 226.0625 C 119.519531 226.652344 119.257812 227.34375 119.324219 228.101562 L 121.625 251.148438 C 121.625 251.507812 122.28125 251.507812 122.3125 251.148438 L 124.617188 228.101562 C 124.679688 227.34375 124.449219 226.621094 123.925781 226.0625 C 123.398438 225.503906 122.707031 225.175781 121.953125 225.175781 Z M 121.984375 225.175781 " fill-opacity="1" fill-rule="nonzero"/><path fill="#007aff" d="M 121.984375 274.488281 C 118.367188 274.488281 115.410156 271.53125 115.410156 267.914062 C 115.410156 264.296875 118.367188 261.339844 121.984375 261.339844 C 125.601562 261.339844 128.5625 264.296875 128.5625 267.914062 C 128.5625 271.53125 125.601562 274.488281 121.984375 274.488281 Z M 121.984375 267.914062 Z M 121.984375 267.914062 " fill-opacity="1" fill-rule="nonzero"/><path fill="#007aff" d="M 74.609375 219.320312 C 67.246094 219.320312 61.230469 213.109375 61.230469 205.449219 C 61.230469 197.789062 67.210938 191.574219 74.609375 191.574219 C 82.007812 191.574219 87.992188 197.789062 87.992188 205.449219 L 81.414062 205.449219 C 81.414062 201.4375 78.359375 198.148438 74.609375 198.148438 C 70.863281 198.148438 67.804688 201.4375 67.804688 205.449219 C 67.804688 209.460938 70.863281 212.746094 74.609375 212.746094 Z M 74.609375 219.320312 " fill-opacity="1" fill-rule="nonzero"/><path fill="#007aff" d="M 74.609375 240.496094 C 67.246094 240.496094 61.230469 234.28125 61.230469 226.621094 L 67.804688 226.621094 C 67.804688 230.632812 70.863281 233.917969 74.609375 233.917969 C 78.359375 233.917969 81.414062 230.632812 81.414062 226.621094 C 81.414062 222.609375 78.359375 219.320312 74.609375 219.320312 L 74.609375 212.746094 C 81.972656 212.746094 87.992188 218.960938 87.992188 226.621094 C 87.992188 234.28125 82.007812 240.496094 74.609375 240.496094 Z M 74.609375 240.496094 " fill-opacity="1" fill-rule="nonzero"/><path fill="#007aff" d="M 71.320312 237.207031 L 77.898438 237.207031 L 77.898438 247.792969 L 71.320312 247.792969 Z M 71.320312 237.207031 " fill-opacity="1" fill-rule="nonzero"/><path fill="#007aff" d="M 71.320312 184.242188 L 77.898438 184.242188 L 77.898438 194.828125 L 71.320312 194.828125 Z M 71.320312 184.242188 " fill-opacity="1" fill-rule="nonzero"/><g clip-path="url(#028c93bc91)"><path fill="#007aff" d="M 91.378906 128.15625 L 86.019531 124.339844 C 89.140625 119.933594 93.972656 111.847656 95.78125 101.984375 C 88.945312 105.929688 80.230469 106.128906 71.816406 102.117188 C 66.359375 99.519531 59.847656 102.347656 57.019531 103.859375 C 57.019531 107.046875 57.480469 114.773438 60.835938 125.230469 L 54.585938 127.234375 C 49.6875 111.980469 50.511719 102.050781 50.542969 101.65625 C 50.644531 100.667969 51.167969 99.78125 51.992188 99.222656 C 52.484375 98.894531 64.15625 91.199219 74.675781 96.199219 C 81.183594 99.289062 91.015625 100.109375 97.230469 92.1875 C 98.082031 91.101562 99.5625 90.640625 100.878906 91.101562 C 102.195312 91.5625 103.082031 92.8125 103.082031 94.191406 C 103.082031 109.347656 95.75 121.972656 91.378906 128.121094 Z M 91.378906 128.15625 " fill-opacity="1" fill-rule="nonzero"/></g><path fill="#007aff" d="M 126.195312 199.597656 C 120.636719 187.695312 111.859375 178.523438 103.378906 169.679688 C 94.203125 160.109375 85.523438 151.070312 82.5 139.761719 L 88.84375 138.050781 C 91.441406 147.714844 99.53125 156.164062 108.113281 165.109375 C 116.5625 173.917969 126.128906 183.882812 132.144531 196.800781 Z M 126.195312 199.597656 " fill-opacity="1" fill-rule="nonzero"/><g clip-path="url(#cdf6c54e3d)"><path fill="#007aff" d="M 61.6875 274.488281 C 36.40625 273.734375 6.882812 260.449219 6.882812 225.40625 C 6.882812 196.703125 21.515625 181.085938 34.433594 167.34375 C 42.980469 158.238281 51.070312 149.625 54.6875 137.984375 L 60.964844 139.925781 C 56.921875 153.007812 47.914062 162.578125 39.234375 171.847656 C 26.578125 185.359375 13.457031 199.300781 13.457031 225.40625 C 13.457031 264.527344 53.796875 267.683594 61.886719 267.914062 Z M 61.6875 274.488281 " fill-opacity="1" fill-rule="nonzero"/></g><path fill="#007aff" d="M 86.808594 142.257812 L 58.566406 142.257812 C 53.238281 142.257812 48.898438 137.917969 48.898438 132.59375 C 48.898438 127.265625 53.238281 122.925781 58.566406 122.925781 L 86.808594 122.925781 C 92.132812 122.925781 96.472656 127.265625 96.472656 132.59375 C 96.472656 137.917969 92.132812 142.257812 86.808594 142.257812 Z M 58.566406 129.46875 C 56.855469 129.46875 55.476562 130.851562 55.476562 132.558594 C 55.476562 134.269531 56.855469 135.652344 58.566406 135.652344 L 86.808594 135.652344 C 88.515625 135.652344 89.898438 134.269531 89.898438 132.558594 C 89.898438 130.851562 88.515625 129.46875 86.808594 129.46875 Z M 58.566406 129.46875 " fill-opacity="1" fill-rule="nonzero"/><g fill="#007aff" fill-opacity="1"><g transform="translate(141.69193, 206.884487)"><g><path d="M 29.578125 -36.890625 L 29.578125 -30.765625 L 18.921875 -30.765625 L 18.921875 0 L 11.65625 0 L 11.65625 -30.765625 L 1.015625 -30.765625 L 1.015625 -36.890625 Z M 29.578125 -36.890625 "/></g></g></g><g fill="#007aff" fill-opacity="1"><g transform="translate(172.280104, 206.884487)"><g><path d="M 4.796875 0 L 4.796875 -36.890625 L 19.609375 -36.890625 C 23.429688 -36.890625 26.3125 -36.007812 28.25 -34.25 C 30.195312 -32.5 31.171875 -30.078125 31.171875 -26.984375 C 31.171875 -24.742188 30.601562 -22.90625 29.46875 -21.46875 C 28.332031 -20.039062 26.632812 -18.953125 24.375 -18.203125 L 24.375 -17.671875 C 25.539062 -17.160156 26.476562 -16.410156 27.1875 -15.421875 C 27.90625 -14.429688 28.582031 -12.957031 29.21875 -11 L 32.90625 0 L 25.421875 0 L 21.8125 -11.03125 C 21.4375 -12.132812 21.015625 -12.992188 20.546875 -13.609375 C 20.085938 -14.222656 19.5 -14.671875 18.78125 -14.953125 C 18.070312 -15.234375 17.144531 -15.375 16 -15.375 L 12.09375 -15.375 L 12.09375 0 Z M 18.734375 -21.15625 C 22.265625 -21.15625 24.03125 -22.800781 24.03125 -26.09375 C 24.03125 -29.445312 22.265625 -31.125 18.734375 -31.125 L 12.09375 -31.125 L 12.09375 -21.15625 Z M 18.734375 -21.15625 "/></g></g></g><g fill="#007aff" fill-opacity="1"><g transform="translate(206.780139, 206.884487)"><g><path d="M 35.40625 0 L 27.734375 0 L 24.953125 -8.5 L 10.828125 -8.5 L 8.046875 0 L 0.5625 0 L 13.296875 -36.890625 L 22.65625 -36.890625 Z M 17.546875 -29.203125 L 12.796875 -14.640625 L 22.9375 -14.640625 L 18.171875 -29.203125 Z M 17.546875 -29.203125 "/></g></g></g><g fill="#007aff" fill-opacity="1"><g transform="translate(242.743965, 206.884487)"><g><path d="M 20.171875 0.53125 C 16.765625 0.53125 13.765625 -0.171875 11.171875 -1.578125 C 8.585938 -2.992188 6.5625 -5.117188 5.09375 -7.953125 C 3.632812 -10.796875 2.90625 -14.296875 2.90625 -18.453125 C 2.90625 -22.609375 3.632812 -26.101562 5.09375 -28.9375 C 6.5625 -31.769531 8.585938 -33.890625 11.171875 -35.296875 C 13.765625 -36.710938 16.765625 -37.421875 20.171875 -37.421875 C 23.710938 -37.421875 26.722656 -36.726562 29.203125 -35.34375 C 31.691406 -33.957031 33.46875 -31.84375 34.53125 -29 L 29.203125 -25.75 L 28.5625 -25.765625 C 27.78125 -27.679688 26.707031 -29.054688 25.34375 -29.890625 C 23.988281 -30.722656 22.265625 -31.140625 20.171875 -31.140625 C 17.109375 -31.140625 14.71875 -30.125 13 -28.09375 C 11.28125 -26.070312 10.421875 -22.859375 10.421875 -18.453125 C 10.421875 -14.054688 11.28125 -10.84375 13 -8.8125 C 14.71875 -6.789062 17.109375 -5.78125 20.171875 -5.78125 C 24.960938 -5.78125 27.894531 -8.109375 28.96875 -12.765625 L 29.609375 -12.765625 L 34.984375 -9.96875 C 33.972656 -6.46875 32.242188 -3.84375 29.796875 -2.09375 C 27.359375 -0.34375 24.148438 0.53125 20.171875 0.53125 Z M 20.171875 0.53125 "/></g></g></g><g fill="#007aff" fill-opacity="1"><g transform="translate(278.934923, 206.884487)"><g><path d="M 4.796875 0 L 4.796875 -36.890625 L 12.09375 -36.890625 L 12.09375 -21.828125 L 12.890625 -21.828125 L 25.21875 -36.890625 L 32.6875 -36.890625 L 32.6875 -36.265625 L 19.109375 -19.484375 L 34.09375 -0.625 L 34.09375 0 L 25.84375 0 L 12.890625 -15.921875 L 12.09375 -15.921875 L 12.09375 0 Z M 4.796875 0 "/></g></g></g><g fill="#007aff" fill-opacity="1"><g transform="translate(313.031155, 206.884487)"><g><path d="M 12.09375 0 L 4.796875 0 L 4.796875 -36.890625 L 12.09375 -36.890625 Z M 12.09375 0 "/></g></g></g><g fill="#007aff" fill-opacity="1"><g transform="translate(329.940459, 206.884487)"><g><path d="M 29.578125 -36.890625 L 29.578125 -30.765625 L 18.921875 -30.765625 L 18.921875 0 L 11.65625 0 L 11.65625 -30.765625 L 1.015625 -30.765625 L 1.015625 -36.890625 Z M 29.578125 -36.890625 "/></g></g></g><g clip-path="url(#a1ba19da26)"><g clip-path="url(#0c1d8b586b)"><path fill="#007aff" d="M 334.144531 146.5 L 334.144531 167.667969 L 354.109375 167.667969 L 354.109375 146.5 Z M 334.144531 146.5 " fill-opacity="1" fill-rule="nonzero"/></g></g><g clip-path="url(#391b9cfc26)"><g clip-path="url(#9042fdcdde)"><path fill="#007aff" d="M 293.804688 107.046875 L 293.804688 159.585938 L 350.566406 159.585938 L 350.566406 107.046875 Z M 293.804688 107.046875 " fill-opacity="1" fill-rule="nonzero"/></g></g></svg>