<svg width="500" height="500" viewBox="0 0 500 500" fill="none" xmlns="http://www.w3.org/2000/svg">
<rect x="248.684" y="241.558" width="175.793" height="18.1395" rx="9.06977" fill="#0087FF"/>
<rect x="289.919" y="274.209" width="175.793" height="18.1395" rx="9.06977" fill="#0087FF"/>
<rect x="217.215" y="305.047" width="175.793" height="18.1395" rx="9.06977" fill="#0087FF"/>
<rect x="217.215" y="274.209" width="44.4909" height="18.1395" rx="9.06977" fill="#0087FF"/>
<rect x="72.3312" y="169" width="175.793" height="18.1395" rx="9.06977" fill="#0087FF"/>
<rect x="113.566" y="201.651" width="175.793" height="18.1395" rx="9.06977" fill="#0087FF"/>
<rect x="40.8617" y="232.488" width="175.793" height="18.1395" rx="9.06977" fill="#0087FF"/>
<rect x="40.8617" y="201.651" width="44.4909" height="18.1395" rx="9.06977" fill="#0087FF"/>
<path d="M313.144 202V179.5H318.256V202H313.144ZM305.548 180.22V175.72H325.852V180.22H305.548ZM340.979 191.956L333.059 175.72H338.315L344.363 188.428L343.211 188.068H346.631L345.407 188.428L350.915 175.72H355.883L348.575 191.956H340.979ZM342.275 202V191.164H347.279V202H342.275ZM369.681 193.936V189.508H374.793C375.825 189.508 376.689 189.304 377.385 188.896C378.105 188.488 378.645 187.924 379.005 187.204C379.389 186.484 379.581 185.656 379.581 184.72C379.581 183.784 379.389 182.956 379.005 182.236C378.645 181.516 378.105 180.964 377.385 180.58C376.689 180.172 375.825 179.968 374.793 179.968H369.681V175.54H374.361C376.569 175.54 378.441 175.9 379.977 176.62C381.537 177.34 382.725 178.372 383.541 179.716C384.357 181.036 384.765 182.608 384.765 184.432V185.008C384.765 186.832 384.357 188.416 383.541 189.76C382.725 191.08 381.537 192.112 379.977 192.856C378.441 193.576 376.569 193.936 374.361 193.936H369.681ZM365.289 202V175.54H370.401V202H365.289ZM394.744 202V175.72H399.748V202H394.744ZM399.028 202V197.68H410.944V202H399.028ZM399.028 190.804V186.484H410.008V190.804H399.028ZM399.028 180.04V175.72H410.656V180.04H399.028ZM421.049 202V196.96C421.049 195.856 421.217 194.896 421.553 194.08C421.913 193.264 422.489 192.544 423.281 191.92C424.097 191.272 425.165 190.66 426.485 190.084L430.949 188.104C432.053 187.6 432.893 186.988 433.469 186.268C434.069 185.524 434.369 184.576 434.369 183.424C434.369 182.152 433.985 181.144 433.217 180.4C432.473 179.632 431.405 179.248 430.013 179.248C428.621 179.248 427.541 179.632 426.773 180.4C426.029 181.168 425.657 182.236 425.657 183.604H420.725C420.725 181.972 421.073 180.508 421.769 179.212C422.465 177.892 423.497 176.86 424.865 176.116C426.233 175.348 427.949 174.964 430.013 174.964C432.077 174.964 433.793 175.336 435.161 176.08C436.529 176.824 437.561 177.82 438.257 179.068C438.953 180.292 439.301 181.66 439.301 183.172V183.64C439.301 185.608 438.749 187.252 437.645 188.572C436.541 189.868 434.921 190.996 432.785 191.956L428.321 193.936C427.481 194.296 426.893 194.68 426.557 195.088C426.221 195.472 426.053 196 426.053 196.672V198.976L424.829 197.644H439.409V202H421.049Z" fill="#0087FF"/>
<path d="M42.6712 323.684C40.3432 323.684 38.3752 323.312 36.7672 322.568C35.1832 321.824 33.9712 320.804 33.1312 319.508C32.2912 318.188 31.8712 316.7 31.8712 315.044H36.8752C36.8752 315.74 37.0672 316.424 37.4512 317.096C37.8352 317.744 38.4472 318.272 39.2872 318.68C40.1512 319.088 41.2792 319.292 42.6712 319.292C43.9192 319.292 44.9632 319.112 45.8032 318.752C46.6432 318.392 47.2672 317.924 47.6752 317.348C48.0832 316.748 48.2872 316.076 48.2872 315.332C48.2872 314.396 47.8912 313.652 47.0992 313.1C46.3072 312.524 45.0832 312.164 43.4272 312.02L41.1232 311.84C38.6032 311.624 36.5872 310.844 35.0752 309.5C33.5872 308.132 32.8432 306.332 32.8432 304.1C32.8432 302.42 33.2392 300.98 34.0312 299.78C34.8232 298.556 35.9272 297.62 37.3432 296.972C38.7832 296.3 40.4632 295.964 42.3832 295.964C44.3752 295.964 46.0912 296.312 47.5312 297.008C48.9712 297.704 50.0872 298.688 50.8792 299.96C51.6712 301.208 52.0672 302.684 52.0672 304.388H47.0632C47.0632 303.668 46.8832 303.008 46.5232 302.408C46.1872 301.784 45.6712 301.292 44.9752 300.932C44.3032 300.548 43.4392 300.356 42.3832 300.356C41.3752 300.356 40.5352 300.524 39.8632 300.86C39.1912 301.196 38.6872 301.652 38.3512 302.228C38.0152 302.804 37.8472 303.428 37.8472 304.1C37.8472 304.916 38.1472 305.636 38.7472 306.26C39.3472 306.86 40.2952 307.208 41.5912 307.304L43.8952 307.52C45.7672 307.664 47.4112 308.06 48.8272 308.708C50.2432 309.356 51.3352 310.232 52.1032 311.336C52.8952 312.44 53.2912 313.772 53.2912 315.332C53.2912 316.988 52.8592 318.452 51.9952 319.724C51.1312 320.972 49.8952 321.944 48.2872 322.64C46.7032 323.336 44.8312 323.684 42.6712 323.684ZM75.569 323.684C73.193 323.684 71.153 323.264 69.449 322.424C67.745 321.584 66.353 320.492 65.273 319.148C64.217 317.804 63.437 316.34 62.933 314.756C62.429 313.172 62.177 311.648 62.177 310.184V309.392C62.177 307.76 62.429 306.152 62.933 304.568C63.461 302.984 64.265 301.544 65.345 300.248C66.425 298.952 67.793 297.92 69.449 297.152C71.129 296.36 73.109 295.964 75.389 295.964C77.765 295.964 79.829 296.396 81.581 297.26C83.357 298.1 84.773 299.3 85.829 300.86C86.885 302.396 87.521 304.196 87.737 306.26H82.589C82.397 305.06 81.965 304.052 81.293 303.236C80.645 302.396 79.817 301.772 78.809 301.364C77.801 300.932 76.661 300.716 75.389 300.716C74.093 300.716 72.941 300.944 71.933 301.4C70.925 301.832 70.085 302.456 69.413 303.272C68.741 304.088 68.225 305.048 67.865 306.152C67.529 307.256 67.361 308.48 67.361 309.824C67.361 311.12 67.529 312.32 67.865 313.424C68.225 314.528 68.753 315.5 69.449 316.34C70.145 317.156 70.997 317.792 72.005 318.248C73.037 318.704 74.225 318.932 75.569 318.932C77.537 318.932 79.193 318.452 80.537 317.492C81.905 316.508 82.733 315.14 83.021 313.388H88.169C87.929 315.26 87.293 316.976 86.261 318.536C85.229 320.096 83.813 321.344 82.013 322.28C80.213 323.216 78.065 323.684 75.569 323.684ZM98.2428 323V296.54H103.355V323H98.2428ZM114.299 323L106.235 311.552H111.959L120.275 323H114.299ZM101.843 314.216V310.076H108.539C109.475 310.076 110.279 309.884 110.951 309.5C111.647 309.116 112.187 308.576 112.571 307.88C112.955 307.184 113.147 306.392 113.147 305.504C113.147 304.592 112.955 303.788 112.571 303.092C112.187 302.396 111.647 301.856 110.951 301.472C110.279 301.088 109.475 300.896 108.539 300.896H101.843V296.54H107.999C110.111 296.54 111.935 296.852 113.471 297.476C115.031 298.1 116.231 299.048 117.071 300.32C117.911 301.592 118.331 303.188 118.331 305.108V305.684C118.331 307.628 117.899 309.224 117.035 310.472C116.195 311.72 115.007 312.656 113.471 313.28C111.935 313.904 110.111 314.216 107.999 314.216H101.843ZM129.985 323V296.72H135.097V323H129.985ZM151.807 314.936V310.508H156.919C157.951 310.508 158.815 310.304 159.511 309.896C160.231 309.488 160.771 308.924 161.131 308.204C161.515 307.484 161.707 306.656 161.707 305.72C161.707 304.784 161.515 303.956 161.131 303.236C160.771 302.516 160.231 301.964 159.511 301.58C158.815 301.172 157.951 300.968 156.919 300.968H151.807V296.54H156.487C158.695 296.54 160.567 296.9 162.103 297.62C163.663 298.34 164.851 299.372 165.667 300.716C166.483 302.036 166.891 303.608 166.891 305.432V306.008C166.891 307.832 166.483 309.416 165.667 310.76C164.851 312.08 163.663 313.112 162.103 313.856C160.567 314.576 158.695 314.936 156.487 314.936H151.807ZM147.415 323V296.54H152.527V323H147.415ZM181.984 323V300.5H187.096V323H181.984ZM174.388 301.22V296.72H194.692V301.22H174.388Z" fill="#0087FF"/>
</svg>
