<svg width="500" height="510" viewBox="0 0 500 510" fill="none" xmlns="http://www.w3.org/2000/svg">
<rect width="500" height="509.804" fill="url(#paint0_linear_111_2)"/>
<mask id="path-2-outside-1_111_2" maskUnits="userSpaceOnUse" x="40" y="62" width="424" height="366" fill="black">
<rect fill="white" x="40" y="62" width="424" height="366"/>
<path d="M114.988 379.8C145.654 379.8 170.954 377.193 190.888 371.98C211.128 366.46 226.921 358.333 238.268 347.6C249.614 336.56 257.588 322.76 262.188 306.2C266.788 289.333 269.088 269.707 269.088 247.32C269.088 235.667 272.001 228.153 277.828 224.78C283.961 221.407 290.401 219.72 297.148 219.72H310.488V247.32C310.488 280.133 305.888 307.273 296.688 328.74C287.488 349.9 272.001 366.92 250.228 379.8H447.108C447.108 392.987 443.734 401.727 436.988 406.02C430.241 410.007 422.881 412 414.908 412H109.928C94.9011 412 85.0878 408.167 80.4878 400.5C75.8878 392.833 73.5878 383.787 73.5878 373.36C73.5878 335.947 78.3411 301.293 87.8478 269.4C97.3545 237.2 110.234 208.68 126.488 183.84C142.741 158.693 161.141 138.147 181.688 122.2H81.4078C70.9812 122.2 64.2345 119.593 61.1678 114.38C58.1011 109.167 56.5678 103.493 56.5678 97.36V85.4H236.428C243.174 82.9466 250.228 81.1066 257.588 79.88C264.948 78.6533 272.461 78.04 280.128 78.04C286.568 78.04 292.854 79.42 298.988 82.18C305.428 84.6333 310.641 89.08 314.628 95.52C318.921 101.96 321.068 110.853 321.068 122.2H283.808C257.434 122.2 233.821 128.947 212.968 142.44C192.114 155.627 174.328 174.027 159.608 197.64C145.194 221.253 134.154 248.7 126.488 279.98C118.821 310.953 114.988 344.227 114.988 379.8Z"/>
</mask>
<path d="M114.988 379.8C145.654 379.8 170.954 377.193 190.888 371.98C211.128 366.46 226.921 358.333 238.268 347.6C249.614 336.56 257.588 322.76 262.188 306.2C266.788 289.333 269.088 269.707 269.088 247.32C269.088 235.667 272.001 228.153 277.828 224.78C283.961 221.407 290.401 219.72 297.148 219.72H310.488V247.32C310.488 280.133 305.888 307.273 296.688 328.74C287.488 349.9 272.001 366.92 250.228 379.8H447.108C447.108 392.987 443.734 401.727 436.988 406.02C430.241 410.007 422.881 412 414.908 412H109.928C94.9011 412 85.0878 408.167 80.4878 400.5C75.8878 392.833 73.5878 383.787 73.5878 373.36C73.5878 335.947 78.3411 301.293 87.8478 269.4C97.3545 237.2 110.234 208.68 126.488 183.84C142.741 158.693 161.141 138.147 181.688 122.2H81.4078C70.9812 122.2 64.2345 119.593 61.1678 114.38C58.1011 109.167 56.5678 103.493 56.5678 97.36V85.4H236.428C243.174 82.9466 250.228 81.1066 257.588 79.88C264.948 78.6533 272.461 78.04 280.128 78.04C286.568 78.04 292.854 79.42 298.988 82.18C305.428 84.6333 310.641 89.08 314.628 95.52C318.921 101.96 321.068 110.853 321.068 122.2H283.808C257.434 122.2 233.821 128.947 212.968 142.44C192.114 155.627 174.328 174.027 159.608 197.64C145.194 221.253 134.154 248.7 126.488 279.98C118.821 310.953 114.988 344.227 114.988 379.8Z" fill="white"/>
<path d="M114.988 379.8H98.9878V395.8H114.988V379.8ZM190.888 371.98L194.936 387.459L195.017 387.438L195.098 387.416L190.888 371.98ZM238.268 347.6L249.263 359.223L249.345 359.146L249.426 359.068L238.268 347.6ZM262.188 306.2L277.604 310.482L277.614 310.446L277.624 310.41L262.188 306.2ZM277.828 224.78L270.117 210.761L269.963 210.845L269.811 210.933L277.828 224.78ZM310.488 219.72H326.488V203.72H310.488V219.72ZM296.688 328.74L311.361 335.12L311.378 335.081L311.394 335.043L296.688 328.74ZM250.228 379.8L242.082 366.029L191.754 395.8H250.228V379.8ZM447.108 379.8H463.108V363.8H447.108V379.8ZM436.988 406.02L445.128 419.795L445.355 419.66L445.578 419.519L436.988 406.02ZM87.8478 269.4L103.181 273.971L103.187 273.951L103.193 273.93L87.8478 269.4ZM126.488 183.84L139.876 192.6L139.901 192.563L139.925 192.525L126.488 183.84ZM181.688 122.2L191.498 134.84L228.399 106.2H181.688V122.2ZM61.1678 114.38L47.3769 122.492L47.3769 122.492L61.1678 114.38ZM56.5678 85.4V69.4H40.5678V85.4H56.5678ZM236.428 85.4V101.4H239.247L241.896 100.437L236.428 85.4ZM257.588 79.88L254.957 64.0977L254.957 64.0977L257.588 79.88ZM298.988 82.18L292.422 96.7707L292.852 96.9641L293.292 97.1318L298.988 82.18ZM314.628 95.52L301.024 103.942L301.165 104.171L301.315 104.395L314.628 95.52ZM321.068 122.2V138.2H337.068V122.2H321.068ZM212.968 142.44L221.519 155.963L221.59 155.918L221.66 155.873L212.968 142.44ZM159.608 197.64L146.03 189.176L145.99 189.24L145.951 189.304L159.608 197.64ZM126.488 279.98L142.019 283.824L142.023 283.807L142.028 283.789L126.488 279.98ZM114.988 379.8V395.8C146.425 395.8 173.208 393.142 194.936 387.459L190.888 371.98L186.839 356.501C168.701 361.244 144.884 363.8 114.988 363.8V379.8ZM190.888 371.98L195.098 387.416C217.043 381.431 235.459 372.281 249.263 359.223L238.268 347.6L227.273 335.977C218.383 344.386 205.213 351.489 186.678 356.544L190.888 371.98ZM238.268 347.6L249.426 359.068C262.975 345.884 272.313 329.531 277.604 310.482L262.188 306.2L246.772 301.918C242.863 315.989 236.254 327.236 227.11 336.132L238.268 347.6ZM262.188 306.2L277.624 310.41C282.686 291.85 285.088 270.752 285.088 247.32H269.088H253.088C253.088 268.661 250.89 286.816 246.752 301.99L262.188 306.2ZM269.088 247.32H285.088C285.088 242.664 285.692 240.014 286.191 238.729C286.6 237.673 286.67 238.149 285.844 238.627L277.828 224.78L269.811 210.933C256.226 218.798 253.088 234.212 253.088 247.32H269.088ZM277.828 224.78L285.539 238.799C289.402 236.675 293.2 235.72 297.148 235.72V219.72V203.72C287.602 203.72 278.521 206.139 270.117 210.761L277.828 224.78ZM297.148 219.72V235.72H310.488V219.72V203.72H297.148V219.72ZM310.488 219.72H294.488V247.32H310.488H326.488V219.72H310.488ZM310.488 247.32H294.488C294.488 278.782 290.057 303.596 281.982 322.437L296.688 328.74L311.394 335.043C321.719 310.951 326.488 281.485 326.488 247.32H310.488ZM296.688 328.74L282.015 322.36C274.288 340.132 261.249 354.69 242.082 366.029L250.228 379.8L258.374 393.571C282.753 379.15 300.688 359.668 311.361 335.12L296.688 328.74ZM250.228 379.8V395.8H447.108V379.8V363.8H250.228V379.8ZM447.108 379.8H431.108C431.108 385.165 430.403 388.536 429.651 390.484C428.977 392.23 428.414 392.511 428.398 392.521L436.988 406.02L445.578 419.519C459.343 410.759 463.108 394.818 463.108 379.8H447.108ZM436.988 406.02L428.848 392.245C424.612 394.749 420.07 396 414.908 396V412V428C425.692 428 435.871 425.265 445.128 419.795L436.988 406.02ZM414.908 412V396H109.928V412V428H414.908V412ZM109.928 412V396C96.592 396 94.3479 392.502 94.2077 392.268L80.4878 400.5L66.7679 408.732C75.8277 423.832 93.2103 428 109.928 428V412ZM80.4878 400.5L94.2077 392.268C91.3324 387.476 89.5878 381.375 89.5878 373.36H73.5878H57.5878C57.5878 386.198 60.4433 398.191 66.7679 408.732L80.4878 400.5ZM73.5878 373.36H89.5878C89.5878 337.305 94.1676 304.21 103.181 273.971L87.8478 269.4L72.5145 264.829C62.5147 298.377 57.5878 334.588 57.5878 373.36H73.5878ZM87.8478 269.4L103.193 273.93C112.314 243.035 124.582 215.975 139.876 192.6L126.488 183.84L113.099 175.08C95.8872 201.385 82.3946 231.365 72.5026 264.87L87.8478 269.4ZM126.488 183.84L139.925 192.525C155.346 168.667 172.572 149.529 191.498 134.84L181.688 122.2L171.878 109.56C149.711 126.765 130.136 148.72 113.05 175.155L126.488 183.84ZM181.688 122.2V106.2H81.4078V122.2V138.2H181.688V122.2ZM81.4078 122.2V106.2C77.3689 106.2 75.2075 105.673 74.2942 105.32C73.6041 105.054 74.3224 105.186 74.9588 106.268L61.1678 114.38L47.3769 122.492C54.9433 135.355 69.4923 138.2 81.4078 138.2V122.2ZM61.1678 114.38L74.9588 106.268C73.3597 103.549 72.5678 100.683 72.5678 97.36H56.5678H40.5678C40.5678 106.304 42.8426 114.784 47.3769 122.492L61.1678 114.38ZM56.5678 97.36H72.5678V85.4H56.5678H40.5678V97.36H56.5678ZM56.5678 85.4V101.4H236.428V85.4V69.4H56.5678V85.4ZM236.428 85.4L241.896 100.437C247.686 98.3311 253.787 96.7341 260.218 95.6623L257.588 79.88L254.957 64.0977C246.669 65.4791 238.663 67.5622 230.96 70.3633L236.428 85.4ZM257.588 79.88L260.218 95.6623C266.685 94.5844 273.318 94.04 280.128 94.04V78.04V62.04C271.604 62.04 263.21 62.7222 254.957 64.0977L257.588 79.88ZM280.128 78.04V94.04C284.204 94.04 288.259 94.8975 292.422 96.7707L298.988 82.18L305.554 67.5893C297.45 63.9425 288.932 62.04 280.128 62.04V78.04ZM298.988 82.18L293.292 97.1318C296.123 98.2102 298.691 100.174 301.024 103.942L314.628 95.52L328.232 87.0983C322.591 77.9857 314.733 71.0565 304.684 67.2282L298.988 82.18ZM314.628 95.52L301.315 104.395C303.217 107.248 305.068 112.619 305.068 122.2H321.068H337.068C337.068 109.088 334.626 96.6724 327.941 86.6448L314.628 95.52ZM321.068 122.2V106.2H283.808V122.2V138.2H321.068V122.2ZM283.808 122.2V106.2C254.55 106.2 227.881 113.733 204.276 129.007L212.968 142.44L221.66 155.873C239.761 144.161 260.319 138.2 283.808 138.2V122.2ZM212.968 142.44L204.416 128.917C181.282 143.546 161.86 163.782 146.03 189.176L159.608 197.64L173.186 206.104C186.796 184.271 202.947 167.707 221.519 155.963L212.968 142.44ZM159.608 197.64L145.951 189.304C130.554 214.529 118.943 243.55 110.948 276.171L126.488 279.98L142.028 283.789C149.366 253.85 159.835 227.978 173.265 205.976L159.608 197.64ZM126.488 279.98L110.957 276.136C102.945 308.501 98.9878 343.077 98.9878 379.8H114.988H130.988C130.988 345.376 134.697 313.406 142.019 283.824L126.488 279.98Z" fill="white" mask="url(#path-2-outside-1_111_2)"/>
<defs>
<linearGradient id="paint0_linear_111_2" x1="481.5" y1="12.2353" x2="10.951" y2="478.235" gradientUnits="userSpaceOnUse">
<stop offset="0.60339" stop-color="#0087FF"/>
<stop offset="0.936" stop-color="#D3D3D3"/>
</linearGradient>
</defs>
</svg>
