<svg width="500" height="500" viewBox="0 0 500 500" fill="none" xmlns="http://www.w3.org/2000/svg">
<rect x="245.775" y="209.558" width="161.373" height="18.1395" rx="9.06977" fill="#D9D9D9"/>
<rect x="283.627" y="242.209" width="161.373" height="18.1395" rx="9.06977" fill="#0087FF"/>
<rect x="216.887" y="273.047" width="161.373" height="18.1395" rx="9.06977" fill="#D9D9D9"/>
<rect x="216.887" y="242.209" width="40.8412" height="18.1395" rx="9.06977" fill="#D9D9D9"/>
<rect x="83.8879" y="137" width="161.373" height="18.1395" rx="9.06977" fill="#0087FF"/>
<rect x="121.74" y="169.651" width="161.373" height="18.1395" rx="9.06977" fill="#D9D9D9"/>
<rect x="55" y="200.488" width="161.373" height="18.1395" rx="9.06977" fill="#0087FF"/>
<rect x="55" y="169.651" width="40.8412" height="18.1395" rx="9.06977" fill="#D9D9D9"/>
<path d="M97.8238 374.684C95.4478 374.684 93.3718 374.276 91.5958 373.46C89.8438 372.62 88.3918 371.528 87.2398 370.184C86.0878 368.816 85.2238 367.34 84.6478 365.756C84.0958 364.172 83.8198 362.648 83.8198 361.184V360.392C83.8198 358.76 84.1078 357.152 84.6838 355.568C85.2838 353.96 86.1718 352.508 87.3478 351.212C88.5238 349.916 89.9878 348.884 91.7398 348.116C93.4918 347.324 95.5198 346.928 97.8238 346.928C100.128 346.928 102.156 347.324 103.908 348.116C105.66 348.884 107.124 349.916 108.3 351.212C109.476 352.508 110.364 353.96 110.964 355.568C111.564 357.152 111.864 358.76 111.864 360.392V361.184C111.864 362.648 111.576 364.172 111 365.756C110.424 367.34 109.56 368.816 108.408 370.184C107.256 371.528 105.792 372.62 104.016 373.46C102.264 374.276 100.2 374.684 97.8238 374.684ZM97.8238 369.176C99.0718 369.176 100.188 368.96 101.172 368.528C102.18 368.096 103.032 367.496 103.728 366.728C104.448 365.96 104.988 365.072 105.348 364.064C105.708 363.056 105.888 361.976 105.888 360.824C105.888 359.6 105.696 358.484 105.312 357.476C104.952 356.444 104.412 355.556 103.692 354.812C102.996 354.044 102.156 353.456 101.172 353.048C100.188 352.64 99.0718 352.436 97.8238 352.436C96.5758 352.436 95.4598 352.64 94.4758 353.048C93.4918 353.456 92.6398 354.044 91.9198 354.812C91.2238 355.556 90.6958 356.444 90.3358 357.476C89.9758 358.484 89.7958 359.6 89.7958 360.824C89.7958 361.976 89.9758 363.056 90.3358 364.064C90.6958 365.072 91.2238 365.96 91.9198 366.728C92.6398 367.496 93.4918 368.096 94.4758 368.528C95.4598 368.96 96.5758 369.176 97.8238 369.176ZM120.801 366.476V361.364H125.517C126.429 361.364 127.209 361.184 127.857 360.824C128.529 360.464 129.045 359.96 129.405 359.312C129.765 358.64 129.945 357.872 129.945 357.008C129.945 356.096 129.765 355.316 129.405 354.668C129.045 353.996 128.529 353.492 127.857 353.156C127.209 352.796 126.429 352.616 125.517 352.616H120.801V347.504H125.229C127.461 347.504 129.369 347.876 130.953 348.62C132.561 349.364 133.785 350.42 134.625 351.788C135.489 353.156 135.921 354.8 135.921 356.72V357.296C135.921 359.168 135.489 360.8 134.625 362.192C133.785 363.56 132.561 364.616 130.953 365.36C129.369 366.104 127.461 366.476 125.229 366.476H120.801ZM115.617 374V347.504H121.521V374H115.617ZM138.909 374V347.72H144.669V374H138.909ZM143.949 374V369.104H155.433V374H143.949ZM143.949 363.092V358.196H154.605V363.092H143.949ZM143.949 352.616V347.72H155.181V352.616H143.949ZM159.564 374V347.72H169.248L179.148 369.212H180.372L179.652 369.86V347.72H185.196V374H175.44L165.54 352.508H164.316L165.036 351.86V374H159.564ZM226.748 376.16L234.2 345.92H240.104L232.652 376.16H226.748ZM247.276 374L240.796 347.72H246.88L251.956 370.04L250.696 369.212H253.972L252.568 370.04L256.492 348.692H261.388L256.24 374H247.276ZM262.936 374L257.392 348.692H262.54L267.076 370.04L265.708 369.212H268.84L267.652 370.04L272.08 347.72H277.84L272.08 374H262.936ZM297.831 374V347.72H303.735V374H297.831ZM280.839 374V347.72H286.743V374H280.839ZM285.699 363.38V358.196H298.875V363.38H285.699ZM308.984 374V347.72H314.888V374H308.984ZM329.289 374.684C326.913 374.684 324.909 374.312 323.277 373.568C321.645 372.8 320.409 371.768 319.569 370.472C318.729 369.152 318.309 367.64 318.309 365.936H324.033C324.033 366.608 324.213 367.232 324.573 367.808C324.957 368.384 325.533 368.852 326.301 369.212C327.069 369.548 328.065 369.716 329.289 369.716C330.393 369.716 331.317 369.572 332.061 369.284C332.805 368.996 333.369 368.6 333.753 368.096C334.137 367.568 334.329 366.968 334.329 366.296C334.329 365.456 333.969 364.796 333.249 364.316C332.529 363.812 331.365 363.488 329.757 363.344L327.777 363.164C325.161 362.948 323.073 362.132 321.513 360.716C319.953 359.3 319.173 357.428 319.173 355.1C319.173 353.42 319.569 351.968 320.361 350.744C321.177 349.52 322.305 348.584 323.745 347.936C325.185 347.264 326.889 346.928 328.857 346.928C330.921 346.928 332.685 347.288 334.149 348.008C335.637 348.704 336.777 349.7 337.569 350.996C338.361 352.268 338.757 353.768 338.757 355.496H332.997C332.997 354.848 332.841 354.26 332.529 353.732C332.217 353.18 331.749 352.736 331.125 352.4C330.525 352.064 329.769 351.896 328.857 351.896C327.993 351.896 327.261 352.04 326.661 352.328C326.085 352.616 325.653 353.012 325.365 353.516C325.077 353.996 324.933 354.524 324.933 355.1C324.933 355.844 325.197 356.492 325.725 357.044C326.253 357.596 327.117 357.92 328.317 358.016L330.333 358.196C332.253 358.364 333.945 358.784 335.409 359.456C336.873 360.104 338.013 361.004 338.829 362.156C339.669 363.284 340.089 364.664 340.089 366.296C340.089 367.976 339.645 369.452 338.757 370.724C337.893 371.972 336.657 372.944 335.049 373.64C333.441 374.336 331.521 374.684 329.289 374.684ZM348.621 366.476V361.364H353.337C354.249 361.364 355.029 361.184 355.677 360.824C356.349 360.464 356.865 359.96 357.225 359.312C357.585 358.64 357.765 357.872 357.765 357.008C357.765 356.096 357.585 355.316 357.225 354.668C356.865 353.996 356.349 353.492 355.677 353.156C355.029 352.796 354.249 352.616 353.337 352.616H348.621V347.504H353.049C355.281 347.504 357.189 347.876 358.773 348.62C360.381 349.364 361.605 350.42 362.445 351.788C363.309 353.156 363.741 354.8 363.741 356.72V357.296C363.741 359.168 363.309 360.8 362.445 362.192C361.605 363.56 360.381 364.616 358.773 365.36C357.189 366.104 355.281 366.476 353.049 366.476H348.621ZM343.437 374V347.504H349.341V374H343.437ZM366.728 374V347.72H372.488V374H366.728ZM371.768 374V369.104H383.252V374H371.768ZM371.768 363.092V358.196H382.424V363.092H371.768ZM371.768 352.616V347.72H383V352.616H371.768ZM387.383 374V347.504H393.287V374H387.383ZM403.331 374L395.627 362.696H402.107L410.171 374H403.331ZM391.703 365.576V360.932H398.183C399.047 360.932 399.791 360.764 400.415 360.428C401.063 360.068 401.555 359.576 401.891 358.952C402.251 358.304 402.431 357.56 402.431 356.72C402.431 355.88 402.251 355.148 401.891 354.524C401.555 353.876 401.063 353.384 400.415 353.048C399.791 352.688 399.047 352.508 398.183 352.508H391.703V347.504H397.715C399.899 347.504 401.795 347.84 403.403 348.512C405.011 349.16 406.247 350.132 407.111 351.428C407.975 352.724 408.407 354.356 408.407 356.324V356.9C408.407 358.844 407.963 360.464 407.075 361.76C406.211 363.032 404.975 363.992 403.367 364.64C401.783 365.264 399.899 365.576 397.715 365.576H391.703Z" fill="#D9D9D9"/>
<path d="M187.895 374L196.571 347.72H206.111L215.111 374H208.991L201.719 351.788L203.591 352.544H198.947L200.891 351.788L193.799 374H187.895ZM194.483 367.484L196.283 362.588H206.579L208.415 367.484H194.483ZM217.891 374V347.72H223.795V374H217.891Z" fill="#0087FF"/>
<path d="M155.675 427L142.715 414.328H140.267L152.939 400.72H154.343L142.391 413.536L142.355 412.492L157.223 427H155.675ZM139.259 427V400.72H140.411V427H139.259ZM164.351 427L174.467 400.72H177.275L187.751 427H186.563L176.303 401.26L177.239 401.8H174.431L175.367 401.26L165.503 427H164.351ZM168.599 417.64L168.995 416.56H182.891L183.323 417.64H168.599ZM199.717 427V400.72H201.913L218.365 425.92H219.517L218.797 426.352V400.72H219.949V427H217.753L201.301 401.8H200.149L200.869 401.368V427H199.717ZM235.078 427V400.72H237.274L253.726 425.92H254.878L254.158 426.352V400.72H255.31V427H253.114L236.662 401.8H235.51L236.23 401.368V427H235.078ZM267.272 427L277.388 400.72H280.196L290.672 427H289.484L279.224 401.26L280.16 401.8H277.352L278.288 401.26L268.424 427H267.272ZM271.52 417.64L271.916 416.56H285.812L286.244 417.64H271.52ZM303.106 427.108V426.028H311.494C313.63 426.028 315.454 425.692 316.966 425.02C318.502 424.324 319.75 423.4 320.71 422.248C321.694 421.072 322.414 419.764 322.87 418.324C323.35 416.86 323.59 415.36 323.59 413.824C323.59 412.24 323.35 410.728 322.87 409.288C322.39 407.824 321.646 406.528 320.638 405.4C319.654 404.248 318.406 403.348 316.894 402.7C315.382 402.052 313.582 401.728 311.494 401.728H303.106V400.648H311.35C313.654 400.648 315.646 401.008 317.326 401.728C319.006 402.448 320.398 403.42 321.502 404.644C322.606 405.868 323.422 407.26 323.95 408.82C324.478 410.356 324.742 411.94 324.742 413.572V414.04C324.742 415.624 324.49 417.196 323.986 418.756C323.482 420.292 322.69 421.696 321.61 422.968C320.53 424.216 319.138 425.224 317.434 425.992C315.754 426.736 313.726 427.108 311.35 427.108H303.106ZM302.638 427.108V400.648H303.79V427.108H302.638ZM333.495 427L343.611 400.72H346.419L356.895 427H355.707L345.447 401.26L346.383 401.8H343.575L344.511 401.26L334.647 427H333.495ZM337.743 417.64L338.139 416.56H352.035L352.467 417.64H337.743Z" fill="#D9D9D9"/>
</svg>
