<svg width="1165" height="1136" viewBox="0 0 1165 1136" fill="none" xmlns="http://www.w3.org/2000/svg">
<path d="M407.711 532.592C412.075 519.46 413.584 505.549 412.138 491.787C410.692 478.026 406.323 464.731 399.324 452.792C388.948 434.745 373.105 420.457 354.078 411.987C335.051 403.518 313.824 401.305 293.458 405.667C281.887 392.806 267.133 383.214 250.678 377.854C234.223 372.493 216.646 371.554 199.713 375.13C182.78 378.705 167.086 386.67 154.208 398.224C141.331 409.778 131.722 424.515 126.348 440.954C112.779 443.734 99.961 449.376 88.7495 457.502C77.538 465.629 68.1915 476.053 61.3347 488.079C50.8458 506.095 46.363 526.978 48.5342 547.708C50.7054 568.438 59.4182 587.942 73.4129 603.398C69.0328 616.524 67.5084 630.432 68.9415 644.194C70.3747 657.956 74.7324 671.253 81.7231 683.197C92.1124 701.25 107.97 715.541 127.01 724.011C146.05 732.48 167.29 734.69 187.668 730.323C196.86 740.667 208.156 748.932 220.8 754.567C233.444 760.202 247.145 763.076 260.989 762.998C281.865 763.018 302.206 756.408 319.077 744.124C335.949 731.84 348.477 714.516 354.854 694.654C368.421 691.869 381.237 686.225 392.448 678.099C403.659 669.972 413.007 659.55 419.867 647.528C430.232 629.538 434.638 608.733 432.454 588.09C430.271 567.446 421.61 548.02 407.711 532.592ZM260.989 737.473C243.893 737.5 227.332 731.512 214.212 720.56L216.519 719.254L294.227 674.433C296.161 673.3 297.767 671.683 298.886 669.742C300.006 667.801 300.601 665.602 300.613 663.362V553.888L333.464 572.877C333.626 572.959 333.767 573.079 333.874 573.226C333.982 573.373 334.053 573.543 334.082 573.722V664.439C334.041 683.797 326.327 702.349 312.628 716.037C298.929 729.725 280.362 737.432 260.989 737.473ZM103.881 670.435C95.3069 655.642 92.2283 638.301 95.187 621.463L97.4963 622.847L175.28 667.668C177.205 668.797 179.396 669.392 181.628 669.392C183.859 669.392 186.05 668.797 187.975 667.668L282.994 612.93V650.832C282.986 651.028 282.932 651.22 282.839 651.393C282.745 651.566 282.614 651.716 282.455 651.831L203.747 697.189C186.949 706.858 166.999 709.472 148.275 704.456C129.551 699.439 113.585 687.204 103.881 670.435ZM83.4161 501.303C92.0496 486.414 105.677 475.058 121.885 469.245V561.499C121.856 563.728 122.426 565.924 123.536 567.857C124.645 569.791 126.254 571.392 128.194 572.492L222.751 626.999L189.899 645.987C189.721 646.082 189.523 646.131 189.322 646.131C189.12 646.131 188.922 646.082 188.744 645.987L110.191 600.707C93.4251 590.996 81.1938 575.042 76.1754 556.339C71.157 537.636 73.7606 517.708 83.4161 500.919V501.303ZM353.316 563.959L258.451 508.914L291.227 489.999C291.404 489.905 291.603 489.856 291.804 489.856C292.005 489.856 292.203 489.905 292.381 489.999L370.935 535.358C382.945 542.283 392.737 552.479 399.166 564.756C405.595 577.033 408.396 590.883 407.243 604.691C406.089 618.499 401.028 631.695 392.651 642.737C384.274 653.778 372.927 662.211 359.933 667.051V574.796C359.865 572.571 359.219 570.402 358.058 568.502C356.898 566.602 355.265 565.037 353.316 563.959ZM386.015 514.834L383.706 513.45L306.076 468.245C304.14 467.11 301.935 466.511 299.69 466.511C297.444 466.511 295.24 467.11 293.303 468.245L198.364 522.982V485.082C198.343 484.889 198.376 484.695 198.457 484.519C198.538 484.343 198.666 484.192 198.826 484.083L277.379 438.801C289.418 431.87 303.184 428.508 317.065 429.108C330.946 429.708 344.37 434.245 355.765 442.188C367.161 450.132 376.058 461.153 381.415 473.963C386.772 486.773 388.368 500.842 386.017 514.525L386.015 514.834ZM180.434 582.023L147.584 563.111C147.419 563.012 147.279 562.878 147.172 562.719C147.065 562.56 146.995 562.379 146.966 562.19V471.705C146.984 457.824 150.956 444.235 158.419 432.526C165.881 420.818 176.525 411.474 189.106 405.588C201.687 399.701 215.685 397.515 229.464 399.285C243.242 401.055 256.232 406.708 266.914 415.583L264.605 416.891L186.899 461.708C184.964 462.842 183.359 464.458 182.239 466.399C181.119 468.34 180.524 470.539 180.512 472.779L180.434 582.023ZM198.284 543.585L240.599 519.213L282.994 543.585V592.325L240.754 616.695L198.362 592.325L198.284 543.585Z" fill="#0087FF"/>
<path d="M508.776 536.088C504.723 536.088 501.203 535.363 498.216 533.912C495.229 532.461 492.755 530.541 490.792 528.152C488.829 525.763 487.357 523.16 486.376 520.344C485.395 517.528 484.904 514.776 484.904 512.088V510.936C484.904 508.077 485.395 505.24 486.376 502.424C487.4 499.565 488.915 496.984 490.92 494.68C492.925 492.376 495.421 490.541 498.408 489.176C501.395 487.768 504.851 487.064 508.776 487.064C512.744 487.064 516.2 487.768 519.144 489.176C522.131 490.541 524.627 492.376 526.632 494.68C528.637 496.984 530.131 499.565 531.112 502.424C532.136 505.24 532.648 508.077 532.648 510.936V512.152C532.648 514.84 532.157 517.592 531.176 520.408C530.237 523.181 528.765 525.763 526.76 528.152C524.797 530.541 522.323 532.461 519.336 533.912C516.349 535.363 512.829 536.088 508.776 536.088ZM508.776 531.608C511.763 531.608 514.429 531.075 516.776 530.008C519.123 528.899 521.107 527.405 522.728 525.528C524.349 523.608 525.587 521.453 526.44 519.064C527.293 516.675 527.72 514.179 527.72 511.576C527.72 508.845 527.293 506.285 526.44 503.896C525.587 501.507 524.328 499.395 522.664 497.56C521.043 495.683 519.059 494.211 516.712 493.144C514.365 492.077 511.72 491.544 508.776 491.544C505.875 491.544 503.251 492.077 500.904 493.144C498.557 494.211 496.552 495.683 494.888 497.56C493.267 499.395 492.008 501.507 491.112 503.896C490.259 506.285 489.832 508.845 489.832 511.576C489.832 514.179 490.259 516.675 491.112 519.064C491.965 521.453 493.203 523.608 494.824 525.528C496.445 527.405 498.429 528.899 500.776 530.008C503.165 531.075 505.832 531.608 508.776 531.608ZM551.22 517.912V513.624H562.1C564.617 513.624 566.665 513.155 568.244 512.216C569.823 511.235 570.996 509.955 571.764 508.376C572.532 506.755 572.916 504.963 572.916 503C572.916 500.995 572.532 499.203 571.764 497.624C570.996 496.003 569.823 494.723 568.244 493.784C566.665 492.845 564.617 492.376 562.1 492.376H551.22V488.088H561.268C565.023 488.088 568.116 488.707 570.548 489.944C573.023 491.181 574.857 492.888 576.052 495.064C577.289 497.24 577.908 499.736 577.908 502.552V503.448C577.908 506.221 577.289 508.717 576.052 510.936C574.857 513.112 573.023 514.819 570.548 516.056C568.116 517.293 565.023 517.912 561.268 517.912H551.22ZM547.636 535V488.088H552.5V535H547.636ZM591.789 535V488.28H596.653V535H591.789ZM595.501 535V530.584H618.861V535H595.501ZM595.501 513.432V509.08H616.685V513.432H595.501ZM595.501 492.696V488.28H618.157V492.696H595.501ZM634.191 535V488.28H642.319L667.919 530.584H669.967L668.687 531.608V488.28H673.359V535H665.167L639.567 492.696H637.519L638.799 491.672V535H634.191ZM686.597 535L703.813 488.28H712.517L730.309 535H725.317L708.741 491.352L711.365 492.696H704.645L707.397 491.352L691.461 535H686.597ZM695.813 520.152L697.413 515.736H719.109L720.773 520.152H695.813ZM743.686 535V488.28H748.55V535H743.686ZM761.39 538.84L774.446 485.08H778.926L765.87 538.84H761.39ZM799.358 535L786.43 488.28H791.422L803.134 531.864L800.894 530.584H807.102L804.67 531.864L814.206 490.328H818.814L808.318 535H799.358ZM827.454 535L815.934 490.328H820.67L831.294 531.864L828.926 530.584H835.262L832.83 531.864L843.39 488.28H848.254L836.414 535H827.454ZM893.644 535V488.28H898.508V535H893.644ZM861.516 535V488.28H866.38V535H861.516ZM865.292 514.008V509.656H894.732V514.008H865.292ZM917.046 535V488.28H921.91V535H917.046ZM955.422 536.088C951.497 536.088 948.19 535.469 945.502 534.232C942.814 532.952 940.766 531.203 939.358 528.984C937.993 526.723 937.31 524.184 937.31 521.368H942.174C942.174 523.16 942.601 524.845 943.454 526.424C944.35 527.96 945.758 529.219 947.678 530.2C949.641 531.139 952.222 531.608 955.422 531.608C958.366 531.608 960.798 531.181 962.718 530.328C964.681 529.475 966.131 528.323 967.07 526.872C968.051 525.421 968.542 523.8 968.542 522.008C968.542 519.747 967.646 517.869 965.854 516.376C964.105 514.84 961.459 513.923 957.918 513.624L952.542 513.112C948.531 512.771 945.331 511.533 942.942 509.4C940.595 507.224 939.422 504.365 939.422 500.824C939.422 498.136 940.062 495.768 941.342 493.72C942.622 491.672 944.435 490.051 946.782 488.856C949.171 487.661 952.03 487.064 955.358 487.064C958.729 487.064 961.609 487.683 963.998 488.92C966.43 490.115 968.286 491.779 969.566 493.912C970.846 496.045 971.486 498.52 971.486 501.336H966.622C966.622 499.629 966.238 498.029 965.47 496.536C964.702 495.043 963.486 493.848 961.822 492.952C960.158 492.013 958.003 491.544 955.358 491.544C952.841 491.544 950.75 491.971 949.086 492.824C947.465 493.677 946.249 494.808 945.438 496.216C944.67 497.624 944.286 499.16 944.286 500.824C944.286 502.915 945.033 504.685 946.526 506.136C948.019 507.587 950.174 508.419 952.99 508.632L958.366 509.144C961.523 509.4 964.211 510.104 966.43 511.256C968.691 512.365 970.419 513.837 971.614 515.672C972.809 517.464 973.406 519.576 973.406 522.008C973.406 524.739 972.659 527.171 971.166 529.304C969.715 531.437 967.646 533.101 964.958 534.296C962.27 535.491 959.091 536.088 955.422 536.088ZM992.495 517.912V513.624H1003.37C1005.89 513.624 1007.94 513.155 1009.52 512.216C1011.1 511.235 1012.27 509.955 1013.04 508.376C1013.81 506.755 1014.19 504.963 1014.19 503C1014.19 500.995 1013.81 499.203 1013.04 497.624C1012.27 496.003 1011.1 494.723 1009.52 493.784C1007.94 492.845 1005.89 492.376 1003.37 492.376H992.495V488.088H1002.54C1006.3 488.088 1009.39 488.707 1011.82 489.944C1014.3 491.181 1016.13 492.888 1017.33 495.064C1018.56 497.24 1019.18 499.736 1019.18 502.552V503.448C1019.18 506.221 1018.56 508.717 1017.33 510.936C1016.13 513.112 1014.3 514.819 1011.82 516.056C1009.39 517.293 1006.3 517.912 1002.54 517.912H992.495ZM988.911 535V488.088H993.775V535H988.911ZM1033.06 535V488.28H1037.93V535H1033.06ZM1036.78 535V530.584H1060.14V535H1036.78ZM1036.78 513.432V509.08H1057.96V513.432H1036.78ZM1036.78 492.696V488.28H1059.43V492.696H1036.78ZM1075.47 535V488.088H1080.33V535H1075.47ZM1104.46 535L1088.52 514.328H1094.22L1110.41 535H1104.46ZM1078.35 517.272V512.92H1090.89C1093.19 512.92 1095.11 512.472 1096.65 511.576C1098.19 510.68 1099.34 509.464 1100.11 507.928C1100.87 506.392 1101.26 504.643 1101.26 502.68C1101.26 500.717 1100.87 498.968 1100.11 497.432C1099.34 495.896 1098.19 494.68 1096.65 493.784C1095.11 492.845 1093.19 492.376 1090.89 492.376H1078.35V488.088H1090.06C1093.51 488.088 1096.44 488.643 1098.83 489.752C1101.26 490.819 1103.09 492.419 1104.33 494.552C1105.61 496.643 1106.25 499.203 1106.25 502.232V503.128C1106.25 506.157 1105.61 508.739 1104.33 510.872C1103.05 512.963 1101.22 514.563 1098.83 515.672C1096.44 516.739 1093.51 517.272 1090.06 517.272H1078.35ZM534.76 655L512.008 622.264H502.504L530.824 584.92H551.368L526.024 618.328V611.512L556.264 655H534.76ZM488.104 655V584.92H505.96V655H488.104ZM570.816 655L593.28 584.92H621.888L645.12 655H626.688L608.64 597.4L613.728 599.32H601.056L606.24 597.4L588.672 655H570.816ZM589.152 638.776L594.528 624.184H621.12L626.496 638.776H589.152ZM668.355 655V584.92H697.635L720.963 640.792H724.323L722.403 642.52V584.92H739.107V655H709.635L686.307 599.128H682.947L684.867 597.4V655H668.355ZM768.653 655V584.92H797.933L821.261 640.792H824.621L822.701 642.52V584.92H839.405V655H809.933L786.605 599.128H783.245L785.165 597.4V655H768.653ZM862.614 655L885.078 584.92H913.686L936.918 655H918.486L900.438 597.4L905.526 599.32H892.854L898.038 597.4L880.47 655H862.614ZM880.95 638.776L886.326 624.184H912.918L918.294 638.776H880.95ZM976.09 655.384V638.68H987.61C990.618 638.68 993.306 638.264 995.674 637.432C998.106 636.536 1000.15 635.288 1001.82 633.688C1003.48 632.024 1004.76 630.04 1005.66 627.736C1006.55 625.368 1007 622.712 1007 619.768C1007 616.696 1006.55 614.008 1005.66 611.704C1004.76 609.336 1003.48 607.384 1001.82 605.848C1000.15 604.248 998.106 603.064 995.674 602.296C993.306 601.464 990.618 601.048 987.61 601.048H976.09V584.344H986.842C993.178 584.344 998.714 585.24 1003.45 587.032C1008.25 588.824 1012.25 591.32 1015.45 594.52C1018.65 597.656 1021.05 601.304 1022.65 605.464C1024.25 609.624 1025.05 614.04 1025.05 618.712V620.824C1025.05 625.112 1024.25 629.336 1022.65 633.496C1021.05 637.592 1018.65 641.304 1015.45 644.632C1012.25 647.896 1008.25 650.52 1003.45 652.504C998.714 654.424 993.178 655.384 986.842 655.384H976.09ZM960.154 655.384V584.344H978.01V655.384H960.154ZM1040.71 655L1063.17 584.92H1091.78L1115.01 655H1096.58L1078.53 597.4L1083.62 599.32H1070.95L1076.13 597.4L1058.57 655H1040.71ZM1059.05 638.776L1064.42 624.184H1091.01L1096.39 638.776H1059.05Z" fill="#0087FF"/>
</svg>
